{"glyphs":{"0":{"ha":719,"x_min":40,"x_max":679,"o":"m 119 103 q 80 166 119 103 q 40 431 40 229 q 119 758 40 632 q 358 883 199 883 q 599 757 518 883 q 679 431 679 631 q 599 104 679 231 q 358 -22 518 -22 q 119 103 199 -22 m 201 684 q 175 635 201 684 q 149 431 149 586 q 201 177 149 275 q 358 79 253 79 q 517 178 464 79 q 571 431 571 276 q 517 683 571 585 q 358 782 464 782 q 201 684 253 782 z "},"1":{"ha":719,"x_min":118,"x_max":600,"o":"m 156 0 l 156 100 l 335 100 l 333 861 l 444 861 l 444 100 l 600 100 l 600 0 l 156 0 m 143 694 l 118 792 l 333 861 l 333 750 l 143 694 z "},"2":{"ha":719,"x_min":72,"x_max":608,"o":"m 378 433 q 465 551 440 504 q 489 653 489 599 q 445 747 489 708 q 315 785 401 785 q 224 772 268 785 q 135 732 160 753 l 90 818 q 322 883 190 883 q 527 817 454 883 q 600 650 600 750 q 468 376 600 529 l 224 100 l 608 100 l 608 0 l 72 0 l 72 88 l 378 433 z "},"3":{"ha":719,"x_min":64,"x_max":613,"o":"m 110 121 q 288 76 178 76 q 453 125 399 76 q 507 238 507 174 q 463 346 507 303 q 326 389 418 389 l 194 389 l 194 485 l 244 485 q 476 597 429 485 q 488 650 488 624 q 444 747 488 708 q 314 785 400 785 q 222 772 267 785 q 133 732 158 753 l 89 818 q 321 883 189 883 q 523 817 453 883 q 593 646 593 750 q 481 453 593 519 q 613 244 613 393 q 530 56 613 135 q 299 -22 447 -22 q 64 38 151 -22 l 110 121 z "},"4":{"ha":719,"x_min":46,"x_max":643,"o":"m 461 0 l 461 197 l 46 197 l 46 254 l 293 861 l 411 861 l 181 297 l 461 297 l 461 625 l 569 625 l 569 297 l 643 297 l 643 197 l 569 197 l 569 0 l 461 0 z "},"5":{"ha":719,"x_min":75,"x_max":624,"o":"m 585 861 l 585 761 l 251 761 l 240 501 l 338 501 q 553 431 483 501 q 624 247 624 360 q 541 56 624 135 q 310 -22 458 -22 q 75 38 163 -22 l 121 121 q 299 76 189 76 q 464 125 410 76 q 518 242 518 174 q 474 356 518 310 q 338 403 429 403 l 133 403 l 151 861 l 585 861 z "},"6":{"ha":719,"x_min":69,"x_max":669,"o":"m 594 722 q 431 785 536 785 q 259 691 325 785 q 181 440 193 597 q 393 525 282 525 q 528 500 471 525 q 614 433 586 475 q 669 267 669 356 q 596 62 669 146 q 373 -22 522 -22 q 147 85 224 -22 q 69 356 69 193 q 166 738 69 592 q 431 883 263 883 q 643 807 567 883 l 594 722 m 390 428 q 179 318 267 428 q 376 76 197 76 q 513 129 465 76 q 561 256 561 182 q 549 331 561 296 q 497 397 538 367 q 390 428 456 428 z "},"7":{"ha":719,"x_min":81,"x_max":647,"o":"m 647 861 l 647 804 l 311 0 l 190 0 l 511 761 l 81 761 l 81 861 l 647 861 z "},"8":{"ha":719,"x_min":60,"x_max":660,"o":"m 60 226 q 213 457 60 385 q 92 644 92 525 q 161 815 92 747 q 360 883 231 883 q 558 816 489 883 q 628 638 628 749 q 510 454 628 526 q 660 226 660 388 q 580 51 660 125 q 360 -22 500 -22 q 140 51 219 -22 q 60 226 60 125 m 165 226 q 217 120 165 164 q 360 76 268 76 q 503 120 451 76 q 554 231 554 164 q 507 338 554 299 q 356 403 460 376 q 304 417 324 410 q 165 226 165 343 m 240 745 q 218 725 240 745 q 197 647 197 706 q 243 553 197 589 q 404 488 289 517 q 522 651 522 550 q 481 747 522 708 q 360 785 439 785 q 240 745 282 785 z "},"9":{"ha":719,"x_min":50,"x_max":650,"o":"m 303 76 q 460 162 394 76 q 539 410 526 247 q 314 326 433 326 q 186 353 240 326 q 103 421 132 379 q 50 592 50 499 q 125 798 50 713 q 344 883 200 883 q 491 849 429 883 q 586 756 553 815 q 650 478 650 643 q 550 106 650 235 q 298 -22 450 -22 q 56 54 146 -22 l 113 139 q 303 76 178 76 m 314 424 q 432 451 371 424 q 539 533 493 478 q 484 715 531 644 q 346 785 438 785 q 206 728 254 785 q 158 601 158 672 q 194 476 158 529 q 314 424 231 424 z "}," ":{"ha":347,"x_min":0,"x_max":0,"o":""},"!":{"ha":375,"x_min":111,"x_max":264,"o":"m 142 250 l 128 917 l 247 917 l 233 250 l 142 250 m 131 2 q 121 13 131 2 q 111 57 111 24 q 131 112 111 90 q 187 133 150 133 q 244 112 224 133 q 264 57 264 90 q 244 2 264 24 q 187 -19 224 -19 q 131 2 150 -19 z "},"\"":{"ha":421,"x_min":56,"x_max":365,"o":"m 265 635 l 251 944 l 365 944 l 351 635 l 265 635 m 69 635 l 56 944 l 169 944 l 156 635 l 69 635 z "},"#":{"ha":719,"x_min":-19,"x_max":739,"o":"m 403 -36 l 442 238 l 221 238 l 182 -36 l 88 -36 l 126 238 l -19 238 l -8 324 l 139 324 l 169 536 l 24 536 l 35 624 l 182 624 l 222 897 l 317 897 l 276 624 l 497 624 l 536 897 l 631 897 l 590 624 l 739 624 l 728 536 l 578 536 l 547 324 l 696 324 l 683 238 l 535 238 l 496 -36 l 403 -36 m 264 536 l 233 324 l 454 324 l 485 536 l 264 536 z "},"$":{"ha":719,"x_min":85,"x_max":633,"o":"m 104 646 q 168 810 104 744 q 358 882 232 876 l 365 979 l 439 979 l 432 881 q 608 818 528 869 l 564 732 q 425 782 494 774 l 404 488 l 467 468 q 592 382 550 442 q 633 233 633 322 q 563 69 633 144 q 369 -19 493 -7 l 363 -118 l 289 -118 l 296 -21 q 85 38 161 -15 l 131 121 q 303 76 192 81 l 325 404 l 257 426 q 140 516 175 453 q 104 646 104 579 m 529 239 q 425 372 529 338 l 397 381 l 376 81 q 489 138 449 93 q 529 239 529 182 m 207 650 q 306 519 207 550 l 333 510 l 351 783 q 244 739 281 776 q 207 650 207 701 z "},"%":{"ha":1069,"x_min":21,"x_max":1049,"o":"m 299 -118 l 668 979 l 771 979 l 401 -118 l 299 -118 m 357 780 q 381 742 357 780 q 404 583 404 704 q 357 387 404 463 q 213 311 310 311 q 69 388 117 311 q 21 583 21 464 q 69 779 21 703 q 213 856 117 856 q 357 780 310 856 m 283 452 q 295 477 283 452 q 307 583 307 503 q 283 715 307 664 q 213 765 260 765 q 142 715 165 765 q 118 583 118 664 q 142 452 118 503 q 213 401 165 401 q 283 452 260 401 m 713 81 q 689 119 713 81 q 665 278 665 157 q 713 474 665 399 q 856 550 760 550 q 1001 474 953 550 q 1049 278 1049 397 q 1001 82 1049 158 q 856 6 953 6 q 713 81 760 6 m 786 409 q 774 384 786 409 q 763 278 763 358 q 786 147 763 197 q 857 96 810 96 q 928 147 904 96 q 951 278 951 197 q 928 409 951 358 q 857 460 904 460 q 786 409 810 460 z "},"&":{"ha":842,"x_min":49,"x_max":842,"o":"m 842 525 l 842 431 l 685 431 q 600 94 678 207 q 359 -19 522 -19 q 122 60 196 -19 q 49 261 49 140 q 88 396 49 333 q 201 490 128 458 q 93 674 93 556 q 165 857 93 792 q 360 922 236 922 q 579 858 485 922 l 532 761 q 462 803 508 785 q 371 822 415 822 q 247 784 290 822 q 204 682 204 746 q 242 586 204 635 q 313 542 264 560 q 433 525 363 525 l 842 525 m 349 81 q 579 431 579 81 l 349 431 q 210 380 261 431 q 160 256 160 329 q 206 132 160 183 q 349 81 253 81 z "},"'":{"ha":225,"x_min":56,"x_max":169,"o":"m 69 635 l 56 944 l 169 944 l 156 635 l 69 635 z "},"(":{"ha":342,"x_min":83,"x_max":321,"o":"m 243 -129 q 126 124 168 -28 q 83 430 83 275 q 126 737 83 585 q 243 990 168 889 l 321 931 q 227 699 263 849 q 192 431 192 549 q 227 163 192 313 q 321 -69 263 13 l 243 -129 z "},")":{"ha":342,"x_min":21,"x_max":258,"o":"m 115 163 q 132 238 115 163 q 150 431 150 313 q 115 699 150 549 q 21 931 79 849 l 99 990 q 216 737 174 889 q 258 430 258 585 q 216 124 258 275 q 99 -129 174 -28 l 21 -69 q 115 163 79 13 z "},"*":{"ha":601,"x_min":42,"x_max":560,"o":"m 393 675 l 357 782 l 539 819 l 560 750 l 393 675 l 485 514 l 425 472 l 301 608 l 393 675 m 301 608 l 176 472 l 118 515 l 210 675 l 301 608 m 210 675 l 42 751 l 64 819 l 244 782 l 210 675 m 244 782 l 265 965 l 336 965 l 357 782 l 244 782 z "},"+":{"ha":719,"x_min":65,"x_max":654,"o":"m 65 382 l 65 482 l 310 482 l 310 726 l 410 726 l 410 482 l 654 482 l 654 382 l 410 382 l 410 138 l 310 138 l 310 382 l 65 382 z "},",":{"ha":292,"x_min":46,"x_max":222,"o":"m 150 133 q 222 101 201 133 l 92 -189 l 46 -175 l 68 57 q 150 133 76 133 z "},"-":{"ha":567,"x_min":69,"x_max":497,"o":"m 497 306 l 69 306 l 69 406 l 497 406 l 497 306 z "},".":{"ha":292,"x_min":69,"x_max":222,"o":"m 89 2 q 79 13 89 2 q 69 57 69 24 q 89 112 69 90 q 145 133 108 133 q 202 112 182 133 q 222 57 222 90 q 202 2 222 24 q 145 -19 182 -19 q 89 2 108 -19 z "},"/":{"ha":433,"x_min":-42,"x_max":475,"o":"m -42 -128 l 374 1072 l 475 1072 l 58 -128 l -42 -128 z "},":":{"ha":361,"x_min":139,"x_max":292,"o":"m 158 2 q 149 13 158 2 q 139 57 139 24 q 158 112 139 90 q 215 133 178 133 q 272 112 251 133 q 292 57 292 90 q 272 2 292 24 q 215 -19 251 -19 q 158 2 178 -19 m 158 502 q 149 513 158 502 q 139 557 139 524 q 158 612 139 590 q 215 633 178 633 q 272 612 251 633 q 292 557 292 590 q 272 502 292 524 q 215 481 251 481 q 158 502 178 481 z "},";":{"ha":361,"x_min":115,"x_max":292,"o":"m 219 133 q 292 101 271 133 l 161 -189 l 115 -175 l 138 57 q 219 133 146 133 m 158 502 q 149 513 158 502 q 139 557 139 524 q 158 612 139 590 q 215 633 178 633 q 272 612 251 633 q 292 557 292 590 q 272 502 292 524 q 215 481 251 481 q 158 502 178 481 z "},"<":{"ha":719,"x_min":97,"x_max":615,"o":"m 97 397 l 97 465 l 564 742 l 615 657 l 235 432 l 615 207 l 564 122 l 97 397 z "},"=":{"ha":719,"x_min":65,"x_max":654,"o":"m 654 607 l 654 507 l 65 507 l 65 607 l 654 607 m 65 257 l 65 357 l 654 357 l 654 257 l 65 257 z "},">":{"ha":719,"x_min":104,"x_max":622,"o":"m 622 465 l 622 397 l 156 122 l 104 207 l 485 432 l 104 657 l 156 742 l 622 465 z "},"?":{"ha":492,"x_min":0,"x_max":492,"o":"m 243 250 l 146 250 l 146 343 q 171 462 146 410 q 221 536 196 514 q 286 588 246 558 q 341 631 326 618 q 371 671 356 644 q 386 729 386 697 q 344 811 386 783 q 239 839 303 839 q 58 767 128 839 l 0 844 q 243 936 99 936 q 420 883 349 936 q 492 729 492 829 q 469 633 492 676 q 423 569 446 590 q 360 521 400 549 q 301 475 321 493 q 262 421 281 457 q 243 343 243 385 l 243 250 m 138 2 q 128 13 138 2 q 118 57 118 24 q 138 112 118 90 q 194 133 157 133 q 251 112 231 133 q 271 57 271 90 q 251 2 271 24 q 194 -19 231 -19 q 138 2 157 -19 z "},"@":{"ha":1119,"x_min":97,"x_max":1022,"o":"m 415 338 q 415 295 415 338 q 449 208 415 251 q 537 164 483 164 q 628 221 590 164 q 665 382 665 278 l 665 515 q 572 535 618 535 q 460 480 504 535 q 415 338 415 425 m 574 -129 q 220 6 343 -129 q 97 347 97 142 q 220 688 97 553 q 563 824 343 824 q 903 687 783 824 q 1022 347 1022 550 q 963 156 1022 232 q 800 81 903 81 q 715 111 751 81 q 671 183 678 142 l 663 183 q 603 107 643 133 q 522 81 564 81 q 376 147 433 81 q 318 338 318 214 q 389 540 318 463 q 572 617 460 617 q 761 568 683 617 l 761 235 q 811 165 761 165 q 899 220 869 165 q 928 347 928 275 q 833 625 928 513 q 563 738 738 738 q 290 626 389 738 q 192 347 192 515 q 290 68 192 179 q 574 -43 389 -43 q 803 21 710 -43 l 849 -49 q 574 -129 731 -129 z "},"A":{"ha":772,"x_min":0,"x_max":772,"o":"m 454 944 l 772 0 l 657 0 l 565 278 l 207 278 l 115 0 l 0 0 l 318 944 l 454 944 m 386 822 l 239 378 l 532 378 l 386 822 z "},"B":{"ha":783,"x_min":125,"x_max":742,"o":"m 125 0 l 125 944 l 472 944 q 633 878 567 944 q 700 717 700 811 q 667 598 700 651 q 578 515 633 544 q 697 425 653 486 q 742 282 742 364 q 660 82 742 164 q 460 0 578 0 l 125 0 m 457 464 l 236 464 l 236 100 l 457 100 q 583 154 531 100 q 636 283 636 208 q 583 410 636 357 q 457 464 531 464 m 451 844 l 236 844 l 236 564 l 451 564 q 553 604 511 564 q 594 704 594 644 q 553 804 594 764 q 451 844 511 844 z "},"C":{"ha":742,"x_min":69,"x_max":728,"o":"m 467 -22 q 169 115 268 -22 q 69 472 69 253 q 169 829 69 692 q 467 967 268 967 q 704 901 597 967 l 665 808 q 467 865 574 865 q 252 756 324 865 q 181 472 181 647 q 252 188 181 297 q 467 79 324 79 q 679 138 585 79 l 728 51 q 467 -22 608 -22 z "},"D":{"ha":904,"x_min":125,"x_max":863,"o":"m 125 0 l 125 944 l 463 944 q 763 813 663 944 q 863 472 863 681 q 763 132 863 264 q 463 0 663 0 l 125 0 m 463 844 l 236 844 l 236 100 l 463 100 q 679 203 607 100 q 751 472 751 307 q 679 741 751 638 q 463 844 607 844 z "},"E":{"ha":708,"x_min":108,"x_max":650,"o":"m 108 0 l 108 944 l 622 944 l 622 844 l 219 844 l 219 522 l 549 522 l 549 422 l 219 422 l 219 100 l 650 100 l 650 0 l 108 0 z "},"F":{"ha":639,"x_min":125,"x_max":625,"o":"m 125 0 l 125 944 l 625 944 l 625 844 l 236 844 l 236 522 l 551 522 l 551 422 l 236 422 l 236 0 l 125 0 z "},"G":{"ha":896,"x_min":69,"x_max":792,"o":"m 471 -22 q 242 46 335 -22 q 110 222 150 114 q 69 472 69 331 q 110 722 69 614 q 242 899 150 831 q 485 967 335 967 q 753 903 636 967 l 714 808 q 463 865 603 865 q 252 756 324 865 q 181 472 181 647 q 251 188 181 296 q 460 79 322 79 q 686 128 599 79 l 686 422 l 474 422 l 474 522 l 792 522 l 792 74 q 471 -22 639 -22 z "},"H":{"ha":922,"x_min":125,"x_max":797,"o":"m 125 0 l 125 944 l 236 944 l 236 524 l 686 524 l 686 944 l 797 944 l 797 0 l 686 0 l 686 421 l 236 421 l 236 0 l 125 0 z "},"I":{"ha":361,"x_min":125,"x_max":236,"o":"m 125 0 l 125 944 l 236 944 l 236 0 l 125 0 z "},"J":{"ha":593,"x_min":0,"x_max":489,"o":"m 238 78 q 378 267 378 78 l 378 944 l 489 944 l 489 267 q 423 53 489 129 q 253 -22 357 -22 q 0 79 101 -22 l 61 157 q 238 78 144 78 z "},"K":{"ha":765,"x_min":125,"x_max":744,"o":"m 125 0 l 125 944 l 236 944 l 236 501 l 325 501 l 607 944 l 731 944 l 447 500 q 551 460 517 494 q 613 361 586 425 l 744 11 l 639 -22 l 501 342 q 458 400 485 392 q 428 404 446 404 l 236 404 l 236 0 l 125 0 z "},"L":{"ha":621,"x_min":125,"x_max":621,"o":"m 236 100 l 621 100 l 621 0 l 125 0 l 125 944 l 236 944 l 236 100 z "},"M":{"ha":1132,"x_min":111,"x_max":1021,"o":"m 111 0 l 146 944 l 275 944 l 565 279 l 857 944 l 986 944 l 1021 0 l 910 0 l 882 739 l 624 147 l 508 147 l 249 739 l 222 0 l 111 0 z "},"N":{"ha":944,"x_min":125,"x_max":819,"o":"m 125 0 l 125 944 l 254 944 l 708 176 l 708 944 l 819 944 l 819 0 l 690 0 l 236 768 l 236 0 l 125 0 z "},"O":{"ha":936,"x_min":69,"x_max":867,"o":"m 169 115 q 119 184 169 115 q 69 472 69 253 q 169 829 69 692 q 467 967 268 967 q 694 899 601 967 q 826 722 786 831 q 867 472 867 614 q 826 222 867 331 q 694 46 786 114 q 467 -22 601 -22 q 169 115 268 -22 m 252 756 q 216 702 252 756 q 181 472 181 647 q 252 188 181 297 q 467 79 324 79 q 683 189 611 79 q 756 472 756 299 q 683 756 756 646 q 467 865 611 865 q 252 756 324 865 z "},"P":{"ha":707,"x_min":125,"x_max":700,"o":"m 125 0 l 125 944 l 418 944 q 618 863 536 944 q 700 663 700 781 q 618 463 700 544 q 418 381 536 381 l 236 381 l 236 0 l 125 0 m 414 843 l 236 843 l 236 482 l 414 482 q 538 535 486 482 q 590 663 590 589 q 538 790 590 736 q 414 843 486 843 z "},"Q":{"ha":936,"x_min":69,"x_max":867,"o":"m 758 -199 q 592 -254 672 -254 q 463 -200 513 -254 q 414 -28 414 -146 l 414 -19 q 155 134 240 0 q 69 480 69 268 q 169 829 69 692 q 467 967 268 967 q 694 899 601 967 q 867 472 867 771 q 780 135 867 269 q 519 -19 693 0 l 519 -33 q 604 -156 519 -156 q 717 -124 644 -156 l 758 -199 m 252 756 q 216 702 252 756 q 181 472 181 647 q 252 188 181 297 q 467 79 324 79 q 683 189 611 79 q 756 472 756 299 q 683 756 756 646 q 467 865 611 865 q 252 756 324 865 z "},"R":{"ha":804,"x_min":125,"x_max":757,"o":"m 125 0 l 125 944 l 449 944 q 640 866 561 944 q 719 674 719 788 q 677 528 719 593 q 564 429 635 463 q 625 361 606 411 l 757 11 l 651 -22 l 514 342 q 475 399 494 392 q 447 404 464 403 l 236 404 l 236 0 l 125 0 m 443 843 l 236 843 l 236 501 l 443 501 q 560 553 511 501 q 608 674 608 604 q 560 793 608 743 q 443 843 511 843 z "},"S":{"ha":710,"x_min":42,"x_max":668,"o":"m 106 189 q 215 113 147 143 q 362 82 282 82 q 499 124 442 82 q 557 241 557 165 q 508 360 557 317 q 388 425 458 403 q 248 472 318 447 q 128 555 178 497 q 79 707 79 613 q 163 901 79 836 q 361 967 247 967 q 621 901 518 967 l 565 813 q 360 863 486 863 q 242 825 293 863 q 190 714 190 788 q 286 578 190 621 q 378 543 328 558 q 480 507 429 528 q 572 457 531 486 q 668 253 668 392 q 580 47 668 115 q 357 -22 492 -22 q 42 106 178 -22 l 106 189 z "},"T":{"ha":653,"x_min":7,"x_max":646,"o":"m 271 0 l 271 844 l 7 844 l 7 944 l 646 944 l 646 844 l 382 844 l 382 0 l 271 0 z "},"U":{"ha":907,"x_min":104,"x_max":803,"o":"m 104 944 l 215 944 l 215 344 q 274 153 215 226 q 453 79 333 79 q 632 153 572 79 q 692 344 692 226 l 692 944 l 803 944 l 803 351 q 715 82 803 186 q 453 -22 628 -22 q 191 82 278 -22 q 104 351 104 186 l 104 944 z "},"V":{"ha":772,"x_min":0,"x_max":772,"o":"m 115 944 l 386 122 l 657 944 l 772 944 l 454 0 l 318 0 l 0 944 l 115 944 z "},"W":{"ha":1146,"x_min":0,"x_max":1146,"o":"m 763 0 l 571 740 l 372 0 l 243 0 l 0 944 l 115 944 l 310 167 l 518 944 l 632 944 l 828 167 l 1035 944 l 1146 944 l 892 0 l 763 0 z "},"X":{"ha":796,"x_min":14,"x_max":782,"o":"m 35 944 l 164 944 l 396 589 l 629 944 l 758 944 l 460 490 l 782 0 l 654 0 l 397 390 l 142 0 l 14 0 l 333 489 l 35 944 z "},"Y":{"ha":733,"x_min":0,"x_max":733,"o":"m 311 0 l 311 326 l 0 944 l 122 944 l 367 436 l 611 944 l 733 944 l 422 326 l 422 0 l 311 0 z "},"Z":{"ha":696,"x_min":21,"x_max":675,"o":"m 675 0 l 21 0 l 21 94 l 513 844 l 56 844 l 56 944 l 668 944 l 668 888 l 153 100 l 675 100 l 675 0 z "},"[":{"ha":385,"x_min":125,"x_max":364,"o":"m 363 0 l 363 -83 l 125 -83 l 125 947 l 236 947 l 235 0 l 363 0 m 364 947 l 364 864 l 236 864 l 236 947 l 364 947 z "},"\\":{"ha":433,"x_min":-42,"x_max":475,"o":"m 374 -128 l -42 1072 l 58 1072 l 475 -128 l 374 -128 z "},"]":{"ha":385,"x_min":21,"x_max":260,"o":"m 22 -83 l 22 0 l 150 0 l 149 947 l 260 947 l 260 -83 l 22 -83 m 21 864 l 21 947 l 149 947 l 149 864 l 21 864 z "},"^":{"ha":719,"x_min":50,"x_max":669,"o":"m 326 911 l 394 911 l 669 444 l 585 393 l 360 774 l 135 393 l 50 444 l 326 911 z "},"_":{"ha":867,"x_min":69,"x_max":797,"o":"m 797 -100 l 69 -100 l 69 0 l 797 0 l 797 -100 z "},"`":{"ha":292,"x_min":28,"x_max":311,"o":"m 97 1021 q 169 972 133 1021 l 311 778 l 278 743 l 28 947 q 97 1021 53 1021 z "},"a":{"ha":783,"x_min":63,"x_max":672,"o":"m 335 -19 q 139 71 215 -19 q 63 331 63 161 q 159 608 63 501 q 399 714 256 714 q 658 633 543 714 l 658 139 l 672 0 l 581 -7 l 557 118 q 335 -19 479 -19 m 168 334 q 168 271 168 334 q 221 142 168 208 q 356 75 274 75 q 496 158 439 75 q 553 392 553 240 l 553 585 q 404 619 483 619 q 235 540 301 619 q 168 334 168 460 z "},"b":{"ha":769,"x_min":104,"x_max":700,"o":"m 210 972 l 210 581 q 435 714 286 714 q 626 624 551 714 q 700 363 700 533 q 603 87 700 193 q 368 -19 507 -19 q 167 59 229 -19 q 104 272 104 138 l 104 972 l 210 972 m 594 361 q 594 424 594 361 q 547 553 594 488 q 415 619 500 619 q 271 543 329 619 q 210 308 213 467 l 210 272 q 247 130 210 185 q 358 75 283 75 q 528 155 461 75 q 594 361 594 235 z "},"c":{"ha":619,"x_min":63,"x_max":601,"o":"m 601 67 q 369 -19 501 -19 q 149 69 236 -19 q 63 328 63 158 q 149 606 63 499 q 390 714 236 714 q 568 664 486 714 l 542 579 q 393 619 468 619 q 229 542 290 619 q 168 334 168 464 q 224 140 168 204 q 368 75 281 75 q 560 142 479 75 l 601 67 z "},"d":{"ha":783,"x_min":63,"x_max":672,"o":"m 335 -19 q 139 71 215 -19 q 63 331 63 161 q 159 608 63 501 q 404 714 256 714 q 553 688 478 714 l 553 972 l 658 972 l 658 139 l 672 0 l 581 -7 l 557 118 q 335 -19 479 -19 m 168 334 q 168 271 168 334 q 221 142 168 208 q 356 75 274 75 q 496 158 439 75 q 553 392 553 240 l 553 585 q 404 619 483 619 q 235 540 301 619 q 168 334 168 460 z "},"e":{"ha":672,"x_min":63,"x_max":624,"o":"m 350 -19 q 144 68 225 -19 q 63 325 63 156 q 158 604 63 494 q 407 714 254 714 q 564 655 504 714 q 624 508 624 596 q 533 346 624 419 q 268 272 442 272 q 171 276 222 272 q 231 126 181 178 q 354 75 282 75 q 556 150 475 75 l 606 82 q 350 -19 500 -19 m 403 619 q 244 551 307 619 q 169 371 181 483 q 271 364 215 364 q 454 408 390 364 q 518 511 518 453 q 487 587 518 554 q 403 619 456 619 z "},"f":{"ha":421,"x_min":56,"x_max":490,"o":"m 56 604 l 56 694 l 146 694 l 146 765 q 195 938 146 883 q 324 992 244 992 q 490 936 404 992 l 449 861 q 336 893 376 893 q 251 771 251 893 l 251 694 l 411 694 l 411 604 l 251 604 l 251 -222 l 146 -222 l 146 604 l 56 604 z "},"g":{"ha":776,"x_min":63,"x_max":658,"o":"m 658 47 q 562 -226 658 -119 q 322 -332 465 -332 q 63 -251 178 -332 l 115 -169 q 204 -215 149 -197 q 317 -233 260 -233 q 486 -154 419 -233 q 553 49 553 -75 l 553 114 q 335 -19 475 -19 q 139 71 215 -19 q 63 331 63 161 q 159 608 63 501 q 399 714 256 714 q 658 633 543 714 l 658 47 m 168 334 q 168 271 168 334 q 221 142 168 208 q 356 75 274 75 q 496 158 439 75 q 553 396 553 242 l 553 585 q 404 619 483 619 q 235 540 301 619 q 168 334 168 460 z "},"h":{"ha":797,"x_min":125,"x_max":693,"o":"m 693 0 l 588 0 l 588 422 q 447 619 588 619 q 301 536 367 619 q 231 307 235 453 l 231 0 l 125 0 l 125 972 l 231 972 l 231 560 q 335 674 272 635 q 465 714 399 714 q 693 422 693 714 l 693 0 z "},"i":{"ha":356,"x_min":111,"x_max":244,"o":"m 128 847 q 119 856 128 847 q 111 894 111 865 q 128 942 111 924 q 176 961 144 961 q 226 942 208 961 q 244 894 244 922 q 226 847 244 867 q 176 828 208 828 q 128 847 144 828 m 125 0 l 125 694 l 231 694 l 231 0 l 125 0 z "},"j":{"ha":356,"x_min":-114,"x_max":242,"o":"m 131 849 q 122 858 131 849 q 114 894 114 867 q 131 940 114 922 q 178 958 147 958 q 225 940 208 958 q 242 894 242 922 q 225 849 242 867 q 178 831 208 831 q 131 849 147 831 m 40 -233 q 125 -111 125 -233 l 125 694 l 231 694 l 231 -106 q 181 -278 231 -224 q 52 -332 132 -332 q -114 -276 -28 -332 l -72 -201 q 40 -233 0 -233 z "},"k":{"ha":706,"x_min":125,"x_max":664,"o":"m 649 535 q 481 310 649 393 l 664 0 l 542 0 l 381 274 q 231 247 318 256 l 231 0 l 125 0 l 125 972 l 231 972 l 231 585 q 450 714 314 714 q 599 664 550 714 q 649 535 649 614 m 447 619 q 293 541 356 619 q 231 371 231 463 l 231 340 q 464 406 385 353 q 543 528 543 460 q 519 594 543 568 q 447 619 496 619 z "},"l":{"ha":365,"x_min":104,"x_max":393,"o":"m 104 972 l 210 972 l 210 153 q 272 76 210 76 q 351 104 313 76 l 393 29 q 249 -19 317 -19 q 142 18 181 -19 q 104 153 104 56 l 104 972 z "},"m":{"ha":1211,"x_min":104,"x_max":1107,"o":"m 444 714 q 653 540 611 714 q 756 669 693 624 q 886 714 819 714 q 1050 641 993 714 q 1107 422 1107 568 l 1107 0 l 1001 0 l 1001 422 q 869 619 1001 619 q 731 536 793 619 q 665 307 669 453 l 665 0 l 560 0 l 560 422 q 428 619 560 619 q 290 536 351 619 q 224 307 228 453 l 224 0 l 118 0 l 118 556 l 104 694 l 196 701 l 222 561 q 324 674 264 635 q 444 714 383 714 z "},"n":{"ha":790,"x_min":104,"x_max":686,"o":"m 458 714 q 686 422 686 714 l 686 0 l 581 0 l 581 422 q 440 619 581 619 q 294 536 360 619 q 224 307 228 453 l 224 0 l 118 0 l 118 556 l 104 694 l 196 701 l 222 558 q 329 674 265 633 q 458 714 393 714 z "},"o":{"ha":751,"x_min":69,"x_max":682,"o":"m 146 83 q 108 134 146 83 q 69 347 69 185 q 146 612 69 510 q 374 714 222 714 q 604 612 526 714 q 682 347 682 510 q 604 83 682 185 q 374 -19 526 -19 q 146 83 222 -19 m 225 544 q 200 506 225 544 q 175 347 175 468 q 225 151 175 226 q 375 75 275 75 q 526 151 475 75 q 576 347 576 226 q 526 544 576 468 q 375 619 475 619 q 225 544 275 619 z "},"p":{"ha":783,"x_min":104,"x_max":714,"o":"m 442 714 q 638 624 561 714 q 714 363 714 533 q 617 87 714 193 q 372 -19 521 -19 q 224 7 299 -19 l 224 -312 l 118 -312 l 118 556 l 104 694 l 196 701 l 219 574 q 442 714 297 714 m 608 360 q 608 423 608 360 q 556 553 608 486 q 422 619 503 619 q 283 540 340 619 q 224 314 226 461 l 224 114 q 372 75 296 75 q 542 155 475 75 q 608 360 608 235 z "},"q":{"ha":790,"x_min":69,"x_max":665,"o":"m 665 -312 l 560 -312 l 560 108 q 335 -21 483 -21 q 144 69 218 -21 q 69 330 69 160 q 166 606 69 500 q 405 713 263 713 q 665 631 547 713 l 665 -312 m 335 74 q 495 159 431 74 q 560 401 560 244 l 560 585 q 402 618 496 618 q 242 538 308 618 q 175 333 175 458 q 220 140 175 207 q 335 74 265 74 z "},"r":{"ha":489,"x_min":104,"x_max":475,"o":"m 224 0 l 118 0 l 118 556 l 104 694 l 196 701 l 224 535 q 329 665 265 621 q 468 710 393 710 l 475 604 q 224 231 231 585 l 224 0 z "},"s":{"ha":599,"x_min":56,"x_max":550,"o":"m 300 76 q 403 106 361 76 q 444 178 444 135 q 421 248 444 222 q 370 285 397 274 q 293 310 343 296 q 217 335 243 325 q 154 368 190 346 q 86 510 86 410 q 154 663 86 611 q 314 714 222 714 q 428 699 371 714 q 515 667 486 683 l 476 582 q 314 618 410 618 q 228 592 265 618 q 192 527 192 567 q 214 465 192 488 q 260 433 236 443 q 332 410 283 424 q 410 384 381 396 q 478 347 440 372 q 550 194 550 299 q 478 35 550 89 q 300 -19 407 -19 q 56 74 156 -19 l 113 150 q 300 76 189 76 z "},"t":{"ha":460,"x_min":40,"x_max":456,"o":"m 40 604 l 40 694 l 146 694 l 179 903 l 251 903 l 251 694 l 414 694 l 414 604 l 251 604 l 251 151 q 314 75 251 75 q 417 115 361 75 l 456 44 q 299 -19 375 -19 q 184 17 222 -19 q 146 151 146 54 l 146 604 l 40 604 z "},"u":{"ha":790,"x_min":104,"x_max":686,"o":"m 104 694 l 210 694 l 210 272 q 350 75 210 75 q 497 158 431 75 q 567 386 563 240 l 567 694 l 672 694 l 672 139 l 686 0 l 594 -7 l 567 136 q 461 21 525 61 q 332 -19 397 -19 q 104 272 104 -19 l 104 694 z "},"v":{"ha":656,"x_min":7,"x_max":649,"o":"m 121 694 l 329 121 l 536 694 l 649 694 l 390 0 l 265 0 l 7 694 l 121 694 z "},"w":{"ha":981,"x_min":21,"x_max":960,"o":"m 440 694 l 540 694 l 699 164 l 849 694 l 960 694 l 764 0 l 646 0 l 490 513 l 335 0 l 217 0 l 21 694 l 132 694 l 282 164 l 440 694 z "},"x":{"ha":604,"x_min":7,"x_max":597,"o":"m 22 694 l 147 694 l 306 449 l 465 694 l 590 694 l 369 351 l 597 0 l 472 0 l 301 263 l 132 0 l 7 0 l 239 358 l 22 694 z "},"y":{"ha":660,"x_min":7,"x_max":649,"o":"m 274 -332 l 183 -301 l 278 -36 l 7 694 l 121 694 l 331 114 l 538 694 l 649 694 l 274 -332 z "},"z":{"ha":583,"x_min":15,"x_max":556,"o":"m 58 604 l 58 694 l 556 694 l 192 90 l 554 90 l 554 0 l 15 0 l 376 604 l 58 604 z "},"{":{"ha":385,"x_min":42,"x_max":364,"o":"m 260 0 l 364 0 l 364 -83 l 236 -83 q 160 -60 194 -83 q 125 28 125 -36 l 125 332 q 108 381 125 365 q 42 397 90 397 l 42 467 q 108 483 90 467 q 125 532 125 499 l 125 836 q 160 924 125 900 q 236 947 194 947 l 364 947 l 364 864 l 260 864 q 236 840 236 864 l 236 517 q 219 459 236 482 q 168 436 203 436 l 168 428 q 219 405 203 428 q 236 347 236 382 l 236 24 q 260 0 236 0 z "},"|":{"ha":378,"x_min":125,"x_max":253,"o":"m 125 -106 l 125 1050 l 253 1050 l 253 -106 l 125 -106 z "},"}":{"ha":385,"x_min":21,"x_max":343,"o":"m 21 0 l 125 0 q 149 24 149 0 l 149 347 q 165 405 149 382 q 217 428 182 428 l 217 436 q 165 459 182 436 q 149 517 149 482 l 149 840 q 125 864 149 864 l 21 864 l 21 947 l 149 947 q 225 924 190 947 q 260 836 260 900 l 260 532 q 277 483 260 499 q 343 467 294 467 l 343 397 q 277 381 294 397 q 260 332 260 365 l 260 28 q 225 -60 260 -36 q 149 -83 190 -83 l 21 -83 l 21 0 z "},"~":{"ha":719,"x_min":58,"x_max":661,"o":"m 490 344 q 351 398 436 344 q 229 451 265 451 q 136 374 179 451 l 58 417 q 229 553 132 553 q 369 499 283 553 q 490 446 454 446 q 583 524 540 446 l 661 481 q 490 344 588 344 z "},"¡":{"ha":375,"x_min":111,"x_max":264,"o":"m 131 581 q 121 592 131 581 q 111 636 111 603 q 131 691 111 669 q 187 713 150 713 q 244 691 224 713 q 264 636 264 669 q 244 581 264 603 q 187 560 224 560 q 131 581 150 560 m 128 -224 l 142 443 l 233 443 l 247 -224 l 128 -224 z "},"¢":{"ha":719,"x_min":104,"x_max":661,"o":"m 344 83 q 172 190 239 103 q 104 431 104 276 q 181 690 104 585 q 394 808 257 794 l 407 979 l 481 979 l 468 810 q 610 761 542 801 l 582 672 q 461 711 521 704 l 425 176 q 610 251 535 182 l 661 179 q 418 78 560 82 l 404 -118 l 331 -118 l 344 83 m 214 436 q 351 185 214 226 l 388 707 q 260 616 307 689 q 214 436 214 543 z "},"£":{"ha":719,"x_min":61,"x_max":626,"o":"m 61 372 l 61 463 l 150 463 l 150 489 q 231 788 150 693 q 453 883 313 883 q 622 850 551 883 l 579 767 q 442 793 522 793 q 249 489 249 793 l 249 463 l 538 463 l 538 372 l 249 372 l 249 99 l 626 99 l 626 0 l 150 0 l 150 372 l 61 372 z "},"¤":{"ha":719,"x_min":57,"x_max":663,"o":"m 157 294 q 121 431 121 354 q 156 565 121 508 l 57 664 l 125 732 l 222 633 q 358 669 281 669 q 493 633 435 669 l 593 733 l 661 665 l 561 565 q 599 432 599 507 q 563 297 599 357 l 663 197 l 594 129 l 494 228 q 358 192 436 192 q 225 226 279 192 l 126 128 l 58 196 l 157 294 m 249 538 q 229 517 249 538 q 210 431 210 496 q 249 323 210 365 q 359 281 288 281 q 470 324 431 281 q 510 431 510 367 q 470 538 510 494 q 359 581 431 581 q 249 538 288 581 z "},"¥":{"ha":719,"x_min":44,"x_max":675,"o":"m 103 428 l 103 511 l 222 511 l 44 860 l 158 860 l 360 457 l 561 860 l 675 860 l 497 511 l 617 511 l 617 428 l 454 428 l 422 365 l 617 365 l 617 282 l 408 282 l 408 0 l 311 0 l 311 282 l 103 282 l 103 365 l 296 365 l 264 428 l 103 428 z "},"¦":{"ha":378,"x_min":125,"x_max":253,"o":"m 125 581 l 125 972 l 253 972 l 253 581 l 125 581 m 125 -106 l 125 364 l 253 364 l 253 -106 l 125 -106 z "},"§":{"ha":572,"x_min":42,"x_max":531,"o":"m 248 -93 q 288 -93 248 -93 q 374 -53 328 -93 q 419 54 419 -12 q 392 156 419 121 q 323 210 365 190 q 236 251 281 231 q 151 314 192 272 q 93 417 111 356 l 103 428 l 254 356 q 306 332 269 349 q 363 306 343 315 q 413 278 382 296 q 460 242 443 260 q 496 197 478 224 q 531 67 531 149 q 452 -122 531 -57 q 271 -186 374 -186 q 42 -121 135 -186 l 86 -40 q 248 -93 168 -93 m 320 871 q 284 871 320 871 q 201 831 247 871 q 156 724 156 790 q 183 622 156 657 q 252 567 210 588 q 339 526 294 547 q 424 464 383 506 q 482 361 464 422 l 472 350 l 321 422 q 269 446 306 429 q 213 472 232 463 q 163 500 193 482 q 115 536 132 518 q 79 581 97 554 q 44 711 44 629 q 123 899 44 835 q 314 964 201 964 q 519 899 426 964 l 475 818 q 320 871 393 871 z "},"¨":{"ha":514,"x_min":67,"x_max":447,"o":"m 331 847 q 322 856 331 847 q 314 894 314 865 q 331 942 314 924 q 379 961 347 961 q 429 942 411 961 q 447 894 447 922 q 429 847 447 867 q 379 828 411 828 q 331 847 347 828 m 83 847 q 75 856 83 847 q 67 894 67 865 q 83 942 67 924 q 132 961 100 961 q 182 942 164 961 q 200 894 200 922 q 182 847 200 867 q 132 828 164 828 q 83 847 100 828 z "},"©":{"ha":892,"x_min":49,"x_max":843,"o":"m 151 451 q 100 507 151 451 q 49 735 49 564 q 151 1019 49 906 q 442 1132 254 1132 q 737 1017 631 1132 q 843 735 843 903 q 737 452 843 567 q 442 338 631 338 q 151 451 254 338 m 203 971 q 160 924 203 971 q 118 735 118 876 q 203 499 118 593 q 443 404 288 404 q 686 499 599 404 q 774 735 774 594 q 686 970 774 875 q 443 1065 599 1065 q 203 971 288 1065 m 604 542 q 449 489 533 489 q 303 550 364 489 q 243 728 243 611 q 302 917 243 844 q 467 990 361 990 q 590 954 533 990 l 571 881 q 458 917 518 917 q 360 864 399 917 q 321 728 321 811 q 359 604 321 646 q 459 563 397 563 q 569 601 521 563 l 604 542 z "},"ª":{"ha":493,"x_min":42,"x_max":421,"o":"m 333 703 q 213 628 289 628 q 90 683 138 628 q 42 842 42 739 q 101 1010 42 946 q 249 1075 161 1075 q 411 1024 338 1075 l 411 732 l 421 640 l 344 633 l 333 703 m 128 844 q 128 809 128 844 q 155 740 128 775 q 224 704 182 704 q 297 749 267 704 q 326 878 326 794 l 326 983 q 244 1000 290 1000 q 163 956 199 1000 q 128 844 128 913 z "},"«":{"ha":524,"x_min":42,"x_max":482,"o":"m 293 269 q 263 336 263 304 q 293 403 263 368 l 439 575 l 482 554 l 392 336 l 482 118 l 439 97 l 293 269 m 72 269 q 42 336 42 304 q 72 403 42 368 l 218 575 l 261 554 l 171 336 l 261 118 l 218 97 l 72 269 z "},"¬":{"ha":719,"x_min":65,"x_max":654,"o":"m 65 382 l 65 482 l 654 482 l 654 204 l 560 204 l 560 382 l 65 382 z "},"®":{"ha":892,"x_min":49,"x_max":843,"o":"m 151 451 q 100 507 151 451 q 49 735 49 564 q 151 1019 49 906 q 442 1132 254 1132 q 737 1017 631 1132 q 843 735 843 903 q 737 452 843 567 q 442 338 631 338 q 151 451 254 338 m 203 971 q 160 924 203 971 q 118 735 118 876 q 203 499 118 593 q 443 404 288 404 q 686 499 599 404 q 774 735 774 594 q 686 970 774 875 q 443 1065 599 1065 q 203 971 288 1065 m 476 696 l 378 696 l 378 500 l 299 500 l 299 979 l 479 979 q 581 938 539 979 q 622 836 622 896 q 557 718 622 758 q 575 690 567 710 l 643 510 l 571 485 l 499 674 q 476 696 490 696 m 476 908 l 378 908 l 378 764 l 476 764 q 524 785 504 764 q 544 837 544 807 q 524 888 544 867 q 476 908 504 908 z "},"¯":{"ha":579,"x_min":101,"x_max":478,"o":"m 101 840 l 101 940 l 478 940 l 478 840 l 101 840 z "},"°":{"ha":350,"x_min":14,"x_max":336,"o":"m 56 656 q 35 678 56 656 q 14 771 14 701 q 56 886 14 840 q 174 932 97 932 q 294 886 251 932 q 336 771 336 840 q 294 656 336 701 q 174 610 251 610 q 56 656 97 610 m 115 709 q 126 698 115 709 q 174 688 138 688 q 233 709 210 688 q 257 770 257 731 q 233 831 257 810 q 174 853 208 853 q 115 831 139 853 q 92 770 92 810 q 115 709 92 731 z "},"±":{"ha":719,"x_min":65,"x_max":654,"o":"m 65 382 l 65 482 l 310 482 l 310 726 l 410 726 l 410 482 l 654 482 l 654 382 l 410 382 l 410 138 l 310 138 l 310 382 l 65 382 m 65 -67 l 65 33 l 654 33 l 654 -67 l 65 -67 z "},"²":{"ha":460,"x_min":47,"x_max":383,"o":"m 289 728 q 267 776 289 757 q 210 794 244 794 q 149 786 175 794 q 92 754 101 769 l 54 829 q 207 875 126 875 q 333 833 288 875 q 378 722 378 790 q 299 563 378 654 l 174 418 l 383 418 l 383 339 l 47 339 l 47 404 l 226 608 q 289 728 289 681 z "},"³":{"ha":460,"x_min":39,"x_max":386,"o":"m 75 438 q 185 404 126 404 q 272 429 243 404 q 300 488 300 454 q 277 544 300 522 q 207 565 254 565 l 118 565 l 118 642 l 160 642 q 260 669 231 642 q 289 726 289 696 q 267 776 289 757 q 192 794 244 794 q 92 754 140 794 l 54 829 q 206 875 126 875 q 330 833 286 875 q 374 725 374 790 q 355 661 374 693 q 299 615 336 629 q 362 566 338 603 q 386 492 386 529 q 334 374 386 424 q 192 325 282 325 q 39 367 103 325 l 75 438 z "},"´":{"ha":292,"x_min":57,"x_max":340,"o":"m 271 1021 q 340 947 315 1021 l 90 743 l 57 778 l 199 972 q 271 1021 235 1021 z "},"µ":{"ha":790,"x_min":104,"x_max":672,"o":"m 104 694 l 210 694 l 210 272 q 350 75 210 75 q 497 158 431 75 q 567 386 563 240 l 567 694 l 672 694 l 672 0 l 594 -7 l 567 136 q 461 21 525 61 q 332 -19 397 -19 q 189 44 235 -19 l 178 -283 l 104 -283 l 104 694 z "},"¶":{"ha":651,"x_min":0,"x_max":526,"o":"m 358 -312 l 301 -312 l 301 439 q 263 438 289 438 q 76 514 153 438 q 0 700 0 590 q 76 887 0 810 q 263 964 153 964 q 449 887 372 964 q 526 700 526 810 l 526 -312 l 421 -312 l 421 700 l 358 700 l 358 -312 z "},"·":{"ha":292,"x_min":69,"x_max":222,"o":"m 89 344 q 79 355 89 344 q 69 399 69 365 q 89 453 69 432 q 145 475 108 475 q 202 453 182 475 q 222 399 222 432 q 202 344 222 365 q 145 322 182 322 q 89 344 108 322 z "},"¸":{"ha":529,"x_min":132,"x_max":390,"o":"m 226 -122 l 193 -122 l 219 0 l 288 0 l 272 -69 q 364 -101 338 -69 q 390 -176 390 -133 q 354 -251 390 -218 q 246 -283 318 -283 q 187 -274 215 -283 q 144 -256 158 -264 l 132 -246 l 164 -189 q 233 -212 197 -212 q 287 -199 269 -212 q 304 -164 304 -185 q 226 -122 304 -122 z "},"¹":{"ha":460,"x_min":71,"x_max":378,"o":"m 199 769 l 92 739 l 71 818 l 207 861 l 288 861 l 288 418 l 378 418 l 378 339 l 96 339 l 96 418 l 199 418 l 199 769 z "},"º":{"ha":478,"x_min":49,"x_max":429,"o":"m 96 690 q 72 722 96 690 q 49 851 49 753 q 96 1013 49 950 q 238 1075 143 1075 q 381 1013 332 1075 q 429 851 429 950 q 381 690 429 753 q 238 628 332 628 q 96 690 143 628 m 160 959 q 147 939 160 959 q 135 851 135 918 q 160 744 135 785 q 238 704 185 704 q 317 745 290 704 q 343 852 343 786 q 317 959 343 918 q 238 1000 290 1000 q 160 959 185 1000 z "},"»":{"ha":524,"x_min":42,"x_max":482,"o":"m 451 403 q 482 336 482 368 q 451 269 482 304 l 306 97 l 263 118 l 353 336 l 263 554 l 306 575 l 451 403 m 231 403 q 261 336 261 368 q 231 269 261 304 l 85 97 l 42 118 l 132 336 l 42 554 l 85 575 l 231 403 z "},"¼":{"ha":1083,"x_min":97,"x_max":999,"o":"m 225 769 l 118 739 l 97 818 l 233 861 l 314 861 l 314 418 l 404 418 l 404 339 l 122 339 l 122 418 l 225 418 l 225 769 m 868 189 l 868 379 l 956 379 l 956 189 l 999 189 l 999 108 l 956 108 l 956 -6 l 868 -6 l 868 108 l 628 108 l 628 154 l 776 517 l 869 517 l 735 189 l 868 189 m 363 0 l 651 861 l 732 861 l 443 0 l 363 0 z "},"½":{"ha":1083,"x_min":97,"x_max":1000,"o":"m 225 769 l 118 739 l 97 818 l 233 861 l 314 861 l 314 418 l 404 418 l 404 339 l 122 339 l 122 418 l 225 418 l 225 769 m 906 389 q 883 437 906 418 q 826 456 861 456 q 765 447 792 456 q 708 415 718 431 l 671 490 q 824 536 743 536 q 949 494 904 536 q 994 383 994 451 q 915 224 994 315 l 790 79 l 1000 79 l 1000 0 l 664 0 l 664 65 l 843 269 q 906 389 906 342 m 354 0 l 643 861 l 724 861 l 435 0 l 354 0 z "},"¾":{"ha":1083,"x_min":65,"x_max":999,"o":"m 101 438 q 211 404 153 404 q 298 429 269 404 q 326 488 326 454 q 303 544 326 522 q 233 565 281 565 l 144 565 l 144 642 l 186 642 q 286 669 257 642 q 315 726 315 696 q 293 776 315 757 q 219 794 271 794 q 118 754 167 794 l 81 829 q 233 875 153 875 q 356 833 313 875 q 400 725 400 790 q 381 661 400 693 q 325 615 363 629 q 388 566 364 603 q 413 492 413 529 q 360 374 413 424 q 219 325 308 325 q 65 367 129 325 l 101 438 m 868 189 l 868 379 l 956 379 l 956 189 l 999 189 l 999 108 l 956 108 l 956 -6 l 868 -6 l 868 108 l 628 108 l 628 154 l 776 517 l 869 517 l 735 189 l 868 189 m 363 0 l 651 861 l 732 861 l 443 0 l 363 0 z "},"¿":{"ha":492,"x_min":0,"x_max":492,"o":"m 249 444 l 346 444 l 346 351 q 321 233 346 285 q 271 158 296 181 q 206 106 246 136 q 151 63 165 76 q 121 24 136 50 q 106 -35 106 -3 q 147 -117 106 -89 q 253 -144 189 -144 q 433 -72 364 -144 l 492 -150 q 249 -242 393 -242 q 72 -188 143 -242 q 0 -35 0 -135 q 23 61 0 18 q 69 125 46 104 q 131 174 92 146 q 191 219 171 201 q 230 274 211 238 q 249 351 249 310 l 249 444 m 354 692 q 364 682 354 692 q 374 638 374 671 q 354 583 374 604 q 298 561 335 561 q 241 583 261 561 q 221 638 221 604 q 241 692 221 671 q 298 714 261 714 q 354 692 335 714 z "},"À":{"ha":772,"x_min":0,"x_max":772,"o":"m 454 944 l 772 0 l 657 0 l 565 278 l 207 278 l 115 0 l 0 0 l 318 944 l 454 944 m 386 822 l 239 378 l 532 378 l 386 822 m 310 1271 q 382 1222 346 1271 l 524 1028 l 490 993 l 240 1197 q 310 1271 265 1271 z "},"Á":{"ha":772,"x_min":0,"x_max":772,"o":"m 454 944 l 772 0 l 657 0 l 565 278 l 207 278 l 115 0 l 0 0 l 318 944 l 454 944 m 386 822 l 239 378 l 532 378 l 386 822 m 463 1271 q 532 1197 507 1271 l 282 993 l 249 1028 l 390 1222 q 463 1271 426 1271 z "},"Â":{"ha":772,"x_min":0,"x_max":772,"o":"m 454 944 l 772 0 l 657 0 l 565 278 l 207 278 l 115 0 l 0 0 l 318 944 l 454 944 m 386 822 l 239 378 l 532 378 l 386 822 m 325 1221 q 385 1260 351 1260 q 447 1221 419 1260 l 582 1031 l 549 996 l 386 1144 l 224 996 l 190 1031 l 325 1221 z "},"Ã":{"ha":772,"x_min":0,"x_max":772,"o":"m 454 944 l 772 0 l 657 0 l 565 278 l 207 278 l 115 0 l 0 0 l 318 944 l 454 944 m 386 822 l 239 378 l 532 378 l 386 822 m 479 1069 q 384 1090 444 1069 q 296 1111 324 1111 q 231 1050 240 1111 l 165 1061 q 286 1211 190 1211 q 385 1190 322 1211 q 475 1169 447 1169 q 540 1231 531 1169 l 606 1219 q 479 1069 579 1069 z "},"Ä":{"ha":772,"x_min":0,"x_max":772,"o":"m 657 0 l 565 278 l 207 278 l 115 0 l 0 0 l 318 944 l 454 944 l 772 0 l 657 0 m 386 822 l 239 378 l 532 378 l 386 822 m 460 1097 q 451 1106 460 1097 q 443 1144 443 1115 q 460 1192 443 1174 q 508 1211 476 1211 q 558 1192 540 1211 q 576 1144 576 1172 q 558 1097 576 1117 q 508 1078 540 1078 q 460 1097 476 1078 m 213 1097 q 204 1106 213 1097 q 196 1144 196 1115 q 213 1192 196 1174 q 261 1211 229 1211 q 311 1192 293 1211 q 329 1144 329 1172 q 311 1097 329 1117 q 261 1078 293 1078 q 213 1097 229 1078 z "},"Å":{"ha":772,"x_min":0,"x_max":772,"o":"m 454 944 l 772 0 l 657 0 l 565 278 l 207 278 l 115 0 l 0 0 l 318 944 l 454 944 m 386 822 l 239 378 l 532 378 l 386 822 m 282 1035 q 264 1055 282 1035 q 246 1136 246 1075 q 282 1237 246 1197 q 385 1276 318 1276 q 490 1236 453 1276 q 526 1136 526 1196 q 490 1036 526 1076 q 385 996 453 996 q 282 1035 318 996 m 335 1186 q 326 1176 335 1186 q 317 1136 317 1167 q 335 1086 317 1106 q 385 1067 353 1067 q 437 1087 418 1067 q 456 1136 456 1107 q 437 1185 456 1165 q 385 1206 418 1206 q 335 1186 353 1206 z "},"Æ":{"ha":1054,"x_min":0,"x_max":1006,"o":"m 1006 0 l 590 0 l 518 378 l 239 378 l 115 0 l 0 0 l 318 944 l 950 944 l 950 844 l 538 844 l 610 478 l 929 478 l 929 378 l 629 378 l 683 100 l 1006 100 l 1006 0 m 393 844 l 272 478 l 499 478 l 429 844 l 393 844 z "},"Ç":{"ha":776,"x_min":83,"x_max":742,"o":"m 353 -122 l 319 -122 l 344 -1 q 149 169 214 43 q 83 472 83 294 q 183 829 83 692 q 481 967 282 967 q 718 901 611 967 l 679 808 q 481 865 588 865 q 266 756 338 865 q 194 472 194 647 q 266 188 194 297 q 481 79 338 79 q 693 138 599 79 l 742 51 q 481 -22 622 -22 q 410 -17 439 -22 l 399 -69 q 490 -101 464 -69 q 517 -176 517 -133 q 481 -251 517 -218 q 372 -283 444 -283 q 313 -274 342 -283 q 272 -256 285 -264 l 258 -246 l 290 -189 q 360 -212 324 -212 q 413 -199 396 -212 q 431 -164 431 -185 q 353 -122 431 -122 z "},"È":{"ha":708,"x_min":108,"x_max":650,"o":"m 108 0 l 108 944 l 622 944 l 622 844 l 219 844 l 219 522 l 549 522 l 549 422 l 219 422 l 219 100 l 650 100 l 650 0 l 108 0 m 278 1271 q 350 1222 314 1271 l 492 1028 l 458 993 l 208 1197 q 278 1271 233 1271 z "},"É":{"ha":708,"x_min":108,"x_max":650,"o":"m 108 0 l 108 944 l 622 944 l 622 844 l 219 844 l 219 522 l 549 522 l 549 422 l 219 422 l 219 100 l 650 100 l 650 0 l 108 0 m 431 1271 q 500 1197 475 1271 l 250 993 l 217 1028 l 358 1222 q 431 1271 394 1271 z "},"Ê":{"ha":708,"x_min":108,"x_max":650,"o":"m 108 0 l 108 944 l 622 944 l 622 844 l 219 844 l 219 522 l 549 522 l 549 422 l 219 422 l 219 100 l 650 100 l 650 0 l 108 0 m 293 1221 q 353 1260 319 1260 q 415 1221 388 1260 l 550 1031 l 517 996 l 354 1144 l 192 996 l 158 1031 l 293 1221 z "},"Ë":{"ha":708,"x_min":108,"x_max":650,"o":"m 108 0 l 108 944 l 622 944 l 622 844 l 219 844 l 219 522 l 549 522 l 549 422 l 219 422 l 219 100 l 650 100 l 650 0 l 108 0 m 428 1097 q 419 1106 428 1097 q 411 1144 411 1115 q 428 1192 411 1174 q 476 1211 444 1211 q 526 1192 508 1211 q 544 1144 544 1172 q 526 1097 544 1117 q 476 1078 508 1078 q 428 1097 444 1078 m 181 1097 q 172 1106 181 1097 q 164 1144 164 1115 q 181 1192 164 1174 q 229 1211 197 1211 q 279 1192 261 1211 q 297 1144 297 1172 q 279 1097 297 1117 q 229 1078 261 1078 q 181 1097 197 1078 z "},"Ì":{"ha":361,"x_min":35,"x_max":318,"o":"m 125 0 l 125 944 l 236 944 l 236 0 l 125 0 m 104 1271 q 176 1222 140 1271 l 318 1028 l 285 993 l 35 1197 q 104 1271 60 1271 z "},"Í":{"ha":361,"x_min":43,"x_max":326,"o":"m 125 0 l 125 944 l 236 944 l 236 0 l 125 0 m 257 1271 q 326 1197 301 1271 l 76 993 l 43 1028 l 185 1222 q 257 1271 221 1271 z "},"Î":{"ha":361,"x_min":-15,"x_max":376,"o":"m 125 0 l 125 944 l 236 944 l 236 0 l 125 0 m 119 1221 q 180 1260 146 1260 q 242 1221 214 1260 l 376 1031 l 343 996 l 181 1144 l 18 996 l -15 1031 l 119 1221 z "},"Ï":{"ha":361,"x_min":-10,"x_max":371,"o":"m 125 0 l 125 944 l 236 944 l 236 0 l 125 0 m 254 1097 q 246 1106 254 1097 q 238 1144 238 1115 q 254 1192 238 1174 q 303 1211 271 1211 q 353 1192 335 1211 q 371 1144 371 1172 q 353 1097 371 1117 q 303 1078 335 1078 q 254 1097 271 1078 m 7 1097 q -1 1106 7 1097 q -10 1144 -10 1115 q 7 1192 -10 1174 q 56 1211 24 1211 q 106 1192 88 1211 q 124 1144 124 1172 q 106 1097 124 1117 q 56 1078 88 1078 q 7 1097 24 1078 z "},"Ð":{"ha":904,"x_min":32,"x_max":863,"o":"m 125 0 l 125 422 l 32 422 l 32 522 l 125 522 l 125 944 l 463 944 q 763 813 663 944 q 863 472 863 681 q 763 132 863 264 q 463 0 663 0 l 125 0 m 518 422 l 236 422 l 236 100 l 463 100 q 679 203 607 100 q 751 472 751 307 q 679 741 751 638 q 463 844 607 844 l 236 844 l 236 522 l 518 522 l 518 422 z "},"Ñ":{"ha":944,"x_min":125,"x_max":819,"o":"m 125 0 l 125 944 l 254 944 l 708 176 l 708 944 l 819 944 l 819 0 l 690 0 l 236 768 l 236 0 l 125 0 m 565 1069 q 469 1090 531 1069 q 382 1111 408 1111 q 317 1050 326 1111 l 251 1061 q 372 1211 276 1211 q 471 1190 408 1211 q 561 1169 533 1169 q 626 1231 617 1169 l 692 1219 q 565 1069 665 1069 z "},"Ò":{"ha":936,"x_min":69,"x_max":867,"o":"m 169 115 q 119 184 169 115 q 69 472 69 253 q 169 829 69 692 q 467 967 268 967 q 694 899 601 967 q 826 722 786 831 q 867 472 867 614 q 826 222 867 331 q 694 46 786 114 q 467 -22 601 -22 q 169 115 268 -22 m 252 756 q 216 702 252 756 q 181 472 181 647 q 252 188 181 297 q 467 79 324 79 q 683 189 611 79 q 756 472 756 299 q 683 756 756 646 q 467 865 611 865 q 252 756 324 865 m 392 1271 q 464 1222 428 1271 l 606 1028 l 572 993 l 322 1197 q 392 1271 347 1271 z "},"Ó":{"ha":936,"x_min":69,"x_max":867,"o":"m 169 115 q 119 184 169 115 q 69 472 69 253 q 169 829 69 692 q 467 967 268 967 q 694 899 601 967 q 826 722 786 831 q 867 472 867 614 q 826 222 867 331 q 694 46 786 114 q 467 -22 601 -22 q 169 115 268 -22 m 252 756 q 216 702 252 756 q 181 472 181 647 q 252 188 181 297 q 467 79 324 79 q 683 189 611 79 q 756 472 756 299 q 683 756 756 646 q 467 865 611 865 q 252 756 324 865 m 544 1271 q 614 1197 589 1271 l 364 993 l 331 1028 l 472 1222 q 544 1271 508 1271 z "},"Ô":{"ha":936,"x_min":69,"x_max":867,"o":"m 169 115 q 119 184 169 115 q 69 472 69 253 q 169 829 69 692 q 467 967 268 967 q 694 899 601 967 q 826 722 786 831 q 867 472 867 614 q 826 222 867 331 q 694 46 786 114 q 467 -22 601 -22 q 169 115 268 -22 m 252 756 q 216 702 252 756 q 181 472 181 647 q 252 188 181 297 q 467 79 324 79 q 683 189 611 79 q 756 472 756 299 q 683 756 756 646 q 467 865 611 865 q 252 756 324 865 m 407 1221 q 467 1260 433 1260 q 529 1221 501 1260 l 664 1031 l 631 996 l 468 1144 l 306 996 l 272 1031 l 407 1221 z "},"Õ":{"ha":936,"x_min":69,"x_max":867,"o":"m 169 115 q 119 184 169 115 q 69 472 69 253 q 169 829 69 692 q 467 967 268 967 q 694 899 601 967 q 826 722 786 831 q 867 472 867 614 q 826 222 867 331 q 694 46 786 114 q 467 -22 601 -22 q 169 115 268 -22 m 252 756 q 216 702 252 756 q 181 472 181 647 q 252 188 181 297 q 467 79 324 79 q 683 189 611 79 q 756 472 756 299 q 683 756 756 646 q 467 865 611 865 q 252 756 324 865 m 561 1069 q 465 1090 525 1069 q 378 1111 406 1111 q 313 1050 322 1111 l 247 1061 q 368 1211 272 1211 q 467 1190 403 1211 q 557 1169 531 1169 q 622 1231 613 1169 l 688 1219 q 561 1069 661 1069 z "},"Ö":{"ha":936,"x_min":69,"x_max":867,"o":"m 169 115 q 119 184 169 115 q 69 472 69 253 q 169 829 69 692 q 467 967 268 967 q 694 899 601 967 q 826 722 786 831 q 867 472 867 614 q 826 222 867 331 q 694 46 786 114 q 467 -22 601 -22 q 169 115 268 -22 m 252 756 q 216 702 252 756 q 181 472 181 647 q 252 188 181 297 q 467 79 324 79 q 683 189 611 79 q 756 472 756 299 q 683 756 756 646 q 467 865 611 865 q 252 756 324 865 m 542 1097 q 533 1106 542 1097 q 525 1144 525 1115 q 542 1192 525 1174 q 590 1211 558 1211 q 640 1192 622 1211 q 658 1144 658 1172 q 640 1097 658 1117 q 590 1078 622 1078 q 542 1097 558 1078 m 294 1097 q 286 1106 294 1097 q 278 1144 278 1115 q 294 1192 278 1174 q 343 1211 311 1211 q 393 1192 375 1211 q 411 1144 411 1172 q 393 1097 411 1117 q 343 1078 375 1078 q 294 1097 311 1078 z "},"×":{"ha":719,"x_min":86,"x_max":633,"o":"m 157 158 l 86 229 l 289 432 l 86 635 l 157 706 l 360 503 l 563 706 l 633 635 l 431 432 l 633 229 l 563 158 l 360 361 l 157 158 z "},"Ø":{"ha":936,"x_min":69,"x_max":867,"o":"m 69 472 q 169 829 69 692 q 467 967 268 967 q 583 951 526 967 l 625 1072 l 726 1072 l 671 914 q 817 739 768 856 q 867 476 867 622 q 826 222 867 331 q 694 46 786 114 q 467 -22 601 -22 q 351 -7 406 -22 l 310 -128 l 210 -128 l 264 29 q 118 204 167 88 q 69 472 69 321 m 756 472 q 635 808 756 710 l 385 90 q 467 79 425 79 q 683 189 611 79 q 756 472 756 299 m 181 472 q 300 135 181 232 l 549 854 q 467 865 508 865 q 252 756 324 865 q 181 472 181 647 z "},"Ù":{"ha":907,"x_min":104,"x_max":803,"o":"m 104 944 l 215 944 l 215 344 q 274 153 215 226 q 453 79 333 79 q 632 153 572 79 q 692 344 692 226 l 692 944 l 803 944 l 803 351 q 715 82 803 186 q 453 -22 628 -22 q 191 82 278 -22 q 104 351 104 186 l 104 944 m 376 1271 q 449 1222 413 1271 l 590 1028 l 557 993 l 307 1197 q 376 1271 332 1271 z "},"Ú":{"ha":907,"x_min":104,"x_max":803,"o":"m 104 944 l 215 944 l 215 344 q 274 153 215 226 q 453 79 333 79 q 632 153 572 79 q 692 344 692 226 l 692 944 l 803 944 l 803 351 q 715 82 803 186 q 453 -22 628 -22 q 191 82 278 -22 q 104 351 104 186 l 104 944 m 529 1271 q 599 1197 574 1271 l 349 993 l 315 1028 l 457 1222 q 529 1271 493 1271 z "},"Û":{"ha":907,"x_min":104,"x_max":803,"o":"m 104 944 l 215 944 l 215 344 q 274 153 215 226 q 453 79 333 79 q 632 153 572 79 q 692 344 692 226 l 692 944 l 803 944 l 803 351 q 715 82 803 186 q 453 -22 628 -22 q 191 82 278 -22 q 104 351 104 186 l 104 944 m 392 1221 q 452 1260 418 1260 q 514 1221 486 1260 l 649 1031 l 615 996 l 453 1144 l 290 996 l 257 1031 l 392 1221 z "},"Ü":{"ha":907,"x_min":104,"x_max":803,"o":"m 104 944 l 215 944 l 215 344 q 274 153 215 226 q 453 79 333 79 q 632 153 572 79 q 692 344 692 226 l 692 944 l 803 944 l 803 351 q 715 82 803 186 q 453 -22 628 -22 q 191 82 278 -22 q 104 351 104 186 l 104 944 m 526 1097 q 518 1106 526 1097 q 510 1144 510 1115 q 526 1192 510 1174 q 575 1211 543 1211 q 625 1192 607 1211 q 643 1144 643 1172 q 625 1097 643 1117 q 575 1078 607 1078 q 526 1097 543 1078 m 279 1097 q 271 1106 279 1097 q 263 1144 263 1115 q 279 1192 263 1174 q 328 1211 296 1211 q 378 1192 360 1211 q 396 1144 396 1172 q 378 1097 396 1117 q 328 1078 360 1078 q 279 1097 296 1078 z "},"Ý":{"ha":733,"x_min":0,"x_max":733,"o":"m 311 0 l 311 326 l 0 944 l 122 944 l 367 436 l 611 944 l 733 944 l 422 326 l 422 0 l 311 0 m 443 1271 q 513 1197 488 1271 l 263 993 l 229 1028 l 371 1222 q 443 1271 407 1271 z "},"Þ":{"ha":707,"x_min":125,"x_max":700,"o":"m 125 0 l 125 944 l 236 944 l 236 754 l 418 754 q 618 672 536 754 q 700 472 700 590 q 618 272 700 354 q 418 190 536 190 l 236 190 l 236 0 l 125 0 m 414 653 l 236 653 l 236 292 l 414 292 q 538 345 486 292 q 590 472 590 399 q 538 599 590 546 q 414 653 486 653 z "},"ß":{"ha":804,"x_min":56,"x_max":790,"o":"m 56 604 l 56 694 l 146 694 l 146 765 q 222 939 146 879 q 406 999 299 999 q 594 943 513 999 q 675 799 675 888 q 649 692 675 739 q 592 621 622 644 q 507 503 507 557 q 536 449 507 472 q 607 406 565 425 q 690 365 649 388 q 761 299 732 342 q 790 197 790 257 q 719 35 790 90 q 540 -19 647 -19 q 296 74 396 -19 l 353 150 q 540 76 429 76 q 643 106 603 78 q 683 183 683 135 q 654 257 683 231 q 583 301 625 283 q 500 338 542 318 q 429 396 458 358 q 400 490 400 433 q 426 589 400 546 q 483 654 453 632 q 568 790 568 714 q 519 874 568 842 q 406 906 469 906 q 297 871 342 906 q 251 771 251 836 l 251 -222 l 146 -222 l 146 604 l 56 604 z "},"à":{"ha":783,"x_min":63,"x_max":672,"o":"m 335 -19 q 139 71 215 -19 q 63 331 63 161 q 159 608 63 501 q 399 714 256 714 q 658 633 543 714 l 658 139 l 672 0 l 581 -7 l 557 118 q 335 -19 479 -19 m 168 334 q 168 271 168 334 q 221 142 168 208 q 356 75 274 75 q 496 158 439 75 q 553 392 553 240 l 553 585 q 404 619 483 619 q 235 540 301 619 q 168 334 168 460 m 290 1021 q 363 972 326 1021 l 504 778 l 471 743 l 221 947 q 290 1021 246 1021 z "},"á":{"ha":783,"x_min":63,"x_max":672,"o":"m 335 -19 q 139 71 215 -19 q 63 331 63 161 q 159 608 63 501 q 399 714 256 714 q 658 633 543 714 l 658 139 l 672 0 l 581 -7 l 557 118 q 335 -19 479 -19 m 168 334 q 168 271 168 334 q 221 142 168 208 q 356 75 274 75 q 496 158 439 75 q 553 392 553 240 l 553 585 q 404 619 483 619 q 235 540 301 619 q 168 334 168 460 m 513 1021 q 582 947 557 1021 l 332 743 l 299 778 l 440 972 q 513 1021 476 1021 z "},"â":{"ha":783,"x_min":63,"x_max":672,"o":"m 335 -19 q 139 71 215 -19 q 63 331 63 161 q 159 608 63 501 q 399 714 256 714 q 658 633 543 714 l 658 139 l 672 0 l 581 -7 l 557 118 q 335 -19 479 -19 m 221 142 q 247 108 221 142 q 356 75 274 75 q 495 153 438 75 q 553 375 553 232 l 553 585 q 404 619 483 619 q 235 540 301 619 q 168 334 168 460 q 221 142 168 208 m 326 971 q 387 1010 353 1010 q 449 971 421 1010 l 583 781 l 550 746 l 388 894 l 225 746 l 192 781 l 326 971 z "},"ã":{"ha":783,"x_min":63,"x_max":672,"o":"m 335 -19 q 139 71 215 -19 q 63 331 63 161 q 159 608 63 501 q 399 714 256 714 q 658 633 543 714 l 658 139 l 672 0 l 581 -7 l 557 118 q 335 -19 479 -19 m 221 142 q 247 108 221 142 q 356 75 274 75 q 495 153 438 75 q 553 375 553 232 l 553 585 q 404 619 483 619 q 235 540 301 619 q 168 334 168 460 q 221 142 168 208 m 482 819 q 387 840 447 819 q 299 861 326 861 q 233 800 243 861 l 168 811 q 289 961 193 961 q 387 940 324 961 q 478 919 450 919 q 543 981 533 919 l 608 969 q 482 819 582 819 z "},"ä":{"ha":783,"x_min":63,"x_max":672,"o":"m 335 -19 q 139 71 215 -19 q 63 331 63 161 q 159 608 63 501 q 399 714 256 714 q 658 633 543 714 l 658 139 l 672 0 l 581 -7 l 557 118 q 335 -19 479 -19 m 168 334 q 168 271 168 334 q 221 142 168 208 q 356 75 274 75 q 496 158 439 75 q 553 392 553 240 l 553 585 q 404 619 483 619 q 235 540 301 619 q 168 334 168 460 m 461 847 q 453 856 461 847 q 444 894 444 865 q 461 942 444 924 q 510 961 478 961 q 560 942 542 961 q 578 894 578 922 q 560 847 578 867 q 510 828 542 828 q 461 847 478 828 m 214 847 q 206 856 214 847 q 197 894 197 865 q 214 942 197 924 q 263 961 231 961 q 313 942 294 961 q 331 894 331 922 q 313 847 331 867 q 263 828 294 828 q 214 847 231 828 z "},"å":{"ha":783,"x_min":63,"x_max":672,"o":"m 335 -19 q 139 71 215 -19 q 63 331 63 161 q 159 608 63 501 q 399 714 256 714 q 658 633 543 714 l 658 139 l 672 0 l 581 -7 l 557 118 q 335 -19 479 -19 m 221 142 q 247 108 221 142 q 356 75 274 75 q 495 153 438 75 q 553 375 553 232 l 553 585 q 404 619 483 619 q 235 540 301 619 q 168 334 168 460 q 221 142 168 208 m 303 785 q 285 805 303 785 q 267 886 267 825 q 303 987 267 947 q 406 1026 339 1026 q 510 986 474 1026 q 547 886 547 946 q 510 786 547 826 q 406 746 474 746 q 303 785 339 746 m 356 936 q 347 926 356 936 q 338 886 338 917 q 356 836 338 856 q 406 817 374 817 q 458 837 439 817 q 476 886 476 857 q 458 935 476 915 q 406 956 439 956 q 356 936 374 956 z "},"æ":{"ha":1118,"x_min":54,"x_max":1058,"o":"m 1058 365 l 1056 324 l 592 324 q 655 139 597 203 q 799 75 713 75 q 997 150 919 75 l 1050 82 q 797 -19 947 -19 q 635 23 707 -19 q 524 149 563 65 q 415 27 483 74 q 257 -19 347 -19 q 110 33 167 -19 q 54 168 54 85 q 306 397 54 374 l 486 414 l 486 482 q 449 588 486 556 q 333 619 413 619 q 150 553 253 619 l 101 629 q 350 714 221 714 q 567 607 515 714 q 796 714 653 714 q 1058 365 1058 714 m 486 308 l 486 324 l 310 307 q 197 264 231 300 q 164 182 164 228 q 194 106 164 136 q 272 75 224 75 q 419 137 353 75 q 486 308 486 199 m 794 618 q 662 566 714 618 q 596 417 610 514 l 953 417 q 794 618 947 618 z "},"ç":{"ha":619,"x_min":63,"x_max":601,"o":"m 299 -122 l 265 -122 l 289 -10 q 125 99 188 14 q 63 325 63 183 q 149 606 63 499 q 390 714 236 714 q 568 664 486 714 l 542 579 q 393 619 468 619 q 229 542 290 619 q 168 334 168 464 q 224 140 168 204 q 368 75 281 75 q 560 142 479 75 l 601 67 q 364 -19 501 -19 l 356 -19 l 344 -69 q 436 -101 410 -69 q 463 -176 463 -133 q 426 -251 463 -218 q 318 -283 390 -283 q 259 -274 288 -283 q 217 -256 231 -264 l 204 -246 l 236 -189 q 306 -212 269 -212 q 359 -199 342 -212 q 376 -164 376 -185 q 299 -122 376 -122 z "},"è":{"ha":672,"x_min":63,"x_max":624,"o":"m 350 -19 q 144 68 225 -19 q 63 325 63 156 q 158 604 63 494 q 407 714 254 714 q 564 655 504 714 q 624 508 624 596 q 533 346 624 419 q 268 272 442 272 q 171 276 222 272 q 231 126 181 178 q 354 75 282 75 q 556 150 475 75 l 606 82 q 350 -19 500 -19 m 403 619 q 244 551 307 619 q 169 371 181 483 q 271 364 215 364 q 454 408 390 364 q 518 511 518 453 q 487 587 518 554 q 403 619 456 619 m 249 1021 q 321 972 285 1021 l 463 778 l 429 743 l 179 947 q 249 1021 204 1021 z "},"é":{"ha":672,"x_min":63,"x_max":624,"o":"m 350 -19 q 144 68 225 -19 q 63 325 63 156 q 158 604 63 494 q 407 714 254 714 q 564 655 504 714 q 624 508 624 596 q 533 346 624 419 q 268 272 442 272 q 171 276 222 272 q 231 126 181 178 q 354 75 282 75 q 556 150 475 75 l 606 82 q 350 -19 500 -19 m 403 619 q 244 551 307 619 q 169 371 181 483 q 271 364 215 364 q 454 408 390 364 q 518 511 518 453 q 487 587 518 554 q 403 619 456 619 m 471 1021 q 540 947 515 1021 l 290 743 l 257 778 l 399 972 q 471 1021 435 1021 z "},"ê":{"ha":672,"x_min":63,"x_max":624,"o":"m 350 -19 q 144 68 225 -19 q 63 325 63 156 q 158 604 63 494 q 407 714 254 714 q 564 655 504 714 q 624 508 624 596 q 533 346 624 419 q 268 272 442 272 q 171 276 222 272 q 231 126 181 178 q 354 75 282 75 q 556 150 475 75 l 606 82 q 350 -19 500 -19 m 403 619 q 244 551 307 619 q 169 371 181 483 q 271 364 215 364 q 454 408 390 364 q 518 511 518 453 q 487 587 518 554 q 403 619 456 619 m 307 971 q 367 1010 333 1010 q 429 971 401 1010 l 564 781 l 531 746 l 368 894 l 206 746 l 172 781 l 307 971 z "},"ë":{"ha":672,"x_min":63,"x_max":624,"o":"m 350 -19 q 144 68 225 -19 q 63 325 63 156 q 158 604 63 494 q 407 714 254 714 q 564 655 504 714 q 624 508 624 596 q 533 346 624 419 q 268 272 442 272 q 171 276 222 272 q 231 126 181 178 q 354 75 282 75 q 556 150 475 75 l 606 82 q 350 -19 500 -19 m 403 619 q 244 551 307 619 q 169 371 181 483 q 271 364 215 364 q 454 408 390 364 q 518 511 518 453 q 487 587 518 554 q 403 619 456 619 m 443 847 q 435 856 443 847 q 426 894 426 865 q 443 942 426 924 q 492 961 460 961 q 542 942 524 961 q 560 894 560 922 q 542 847 560 867 q 492 828 524 828 q 443 847 460 828 m 196 847 q 188 856 196 847 q 179 894 179 865 q 196 942 179 924 q 244 961 213 961 q 294 942 276 961 q 313 894 313 922 q 294 847 313 867 q 244 828 276 828 q 196 847 213 828 z "},"ì":{"ha":356,"x_min":11,"x_max":294,"o":"m 125 0 l 125 694 l 231 694 l 231 0 l 125 0 m 81 1021 q 153 972 117 1021 l 294 778 l 261 743 l 11 947 q 81 1021 36 1021 z "},"í":{"ha":356,"x_min":40,"x_max":324,"o":"m 125 0 l 125 694 l 231 694 l 231 0 l 125 0 m 254 1021 q 324 947 299 1021 l 74 743 l 40 778 l 182 972 q 254 1021 218 1021 z "},"î":{"ha":356,"x_min":-18,"x_max":374,"o":"m 125 0 l 125 694 l 231 694 l 231 0 l 125 0 m 117 971 q 177 1010 143 1010 q 239 971 211 1010 l 374 781 l 340 746 l 178 894 l 15 746 l -18 781 l 117 971 z "},"ï":{"ha":356,"x_min":-12,"x_max":368,"o":"m 125 0 l 125 694 l 231 694 l 231 0 l 125 0 m 251 847 q 243 856 251 847 q 235 894 235 865 q 251 942 235 924 q 300 961 268 961 q 350 942 332 961 q 368 894 368 922 q 350 847 368 867 q 300 828 332 828 q 251 847 268 828 m 4 847 q -4 856 4 847 q -12 894 -12 865 q 4 942 -12 924 q 53 961 21 961 q 103 942 85 961 q 121 894 121 922 q 103 847 121 867 q 53 828 85 828 q 4 847 21 828 z "},"ð":{"ha":751,"x_min":79,"x_max":679,"o":"m 679 404 q 597 101 679 221 q 380 -19 515 -19 q 162 67 244 -19 q 79 308 79 154 q 176 560 79 463 q 399 658 274 658 q 542 625 478 658 q 413 811 500 738 l 296 728 l 250 789 l 347 858 q 154 919 261 908 l 165 1003 q 425 914 313 983 l 560 1010 l 604 949 l 489 867 q 633 657 588 781 q 679 404 679 533 m 579 404 q 571 513 579 461 q 413 567 503 567 q 254 494 324 567 q 185 306 185 421 q 238 132 185 192 q 376 72 290 72 q 521 157 463 72 q 579 404 579 242 z "},"ñ":{"ha":790,"x_min":104,"x_max":686,"o":"m 458 714 q 686 422 686 714 l 686 0 l 581 0 l 581 422 q 440 619 581 619 q 290 533 357 619 q 224 292 224 446 l 224 0 l 118 0 l 118 556 l 104 694 l 196 701 l 222 558 q 329 674 265 633 q 458 714 393 714 m 507 819 q 411 840 472 819 q 324 861 350 861 q 258 800 268 861 l 193 811 q 314 961 218 961 q 413 940 350 961 q 503 919 475 919 q 568 981 558 919 l 633 969 q 507 819 607 819 z "},"ò":{"ha":751,"x_min":69,"x_max":682,"o":"m 146 83 q 108 134 146 83 q 69 347 69 185 q 146 612 69 510 q 374 714 222 714 q 604 612 526 714 q 682 347 682 510 q 604 83 682 185 q 374 -19 526 -19 q 146 83 222 -19 m 225 544 q 200 506 225 544 q 175 347 175 468 q 225 151 175 226 q 375 75 275 75 q 526 151 475 75 q 576 347 576 226 q 526 544 576 468 q 375 619 475 619 q 225 544 275 619 m 278 1021 q 350 972 314 1021 l 492 778 l 458 743 l 208 947 q 278 1021 233 1021 z "},"ó":{"ha":751,"x_min":69,"x_max":682,"o":"m 146 83 q 108 134 146 83 q 69 347 69 185 q 146 612 69 510 q 374 714 222 714 q 604 612 526 714 q 682 347 682 510 q 604 83 682 185 q 374 -19 526 -19 q 146 83 222 -19 m 225 544 q 200 506 225 544 q 175 347 175 468 q 225 151 175 226 q 375 75 275 75 q 526 151 475 75 q 576 347 576 226 q 526 544 576 468 q 375 619 475 619 q 225 544 275 619 m 500 1021 q 569 947 544 1021 l 319 743 l 286 778 l 428 972 q 500 1021 464 1021 z "},"ô":{"ha":751,"x_min":69,"x_max":682,"o":"m 146 83 q 108 134 146 83 q 69 347 69 185 q 146 612 69 510 q 374 714 222 714 q 604 612 526 714 q 682 347 682 510 q 604 83 682 185 q 374 -19 526 -19 q 146 83 222 -19 m 225 544 q 200 506 225 544 q 175 347 175 468 q 225 151 175 226 q 375 75 275 75 q 526 151 475 75 q 576 347 576 226 q 526 544 576 468 q 375 619 475 619 q 225 544 275 619 m 314 971 q 374 1010 340 1010 q 436 971 408 1010 l 571 781 l 538 746 l 375 894 l 213 746 l 179 781 l 314 971 z "},"õ":{"ha":751,"x_min":69,"x_max":682,"o":"m 146 83 q 108 134 146 83 q 69 347 69 185 q 146 612 69 510 q 374 714 222 714 q 604 612 526 714 q 682 347 682 510 q 604 83 682 185 q 374 -19 526 -19 q 146 83 222 -19 m 225 544 q 200 506 225 544 q 175 347 175 468 q 225 151 175 226 q 375 75 275 75 q 526 151 475 75 q 576 347 576 226 q 526 544 576 468 q 375 619 475 619 q 225 544 275 619 m 469 819 q 374 840 433 819 q 286 861 314 861 q 221 800 231 861 l 156 811 q 276 961 181 961 q 375 940 311 961 q 465 919 439 919 q 531 981 521 919 l 596 969 q 469 819 569 819 z "},"ö":{"ha":751,"x_min":69,"x_max":682,"o":"m 146 83 q 108 134 146 83 q 69 347 69 185 q 146 612 69 510 q 374 714 222 714 q 604 612 526 714 q 682 347 682 510 q 604 83 682 185 q 374 -19 526 -19 q 146 83 222 -19 m 225 544 q 200 506 225 544 q 175 347 175 468 q 225 151 175 226 q 375 75 275 75 q 526 151 475 75 q 576 347 576 226 q 526 544 576 468 q 375 619 475 619 q 225 544 275 619 m 449 847 q 440 856 449 847 q 432 894 432 865 q 449 942 432 924 q 497 961 465 961 q 547 942 529 961 q 565 894 565 922 q 547 847 565 867 q 497 828 529 828 q 449 847 465 828 m 201 847 q 193 856 201 847 q 185 894 185 865 q 201 942 185 924 q 250 961 218 961 q 300 942 282 961 q 318 894 318 922 q 300 847 318 867 q 250 828 282 828 q 201 847 218 828 z "},"÷":{"ha":719,"x_min":65,"x_max":654,"o":"m 302 574 q 292 585 302 574 q 282 629 282 596 q 302 685 282 663 q 360 707 322 707 q 417 685 397 707 q 438 629 438 663 q 417 574 438 596 q 360 551 397 551 q 302 574 322 551 m 65 382 l 65 482 l 654 482 l 654 382 l 65 382 m 302 179 q 292 190 302 179 q 282 235 282 201 q 302 290 282 268 q 360 313 322 313 q 417 290 397 313 q 438 235 438 268 q 417 179 438 201 q 360 157 397 157 q 302 179 322 157 z "},"ø":{"ha":751,"x_min":69,"x_max":682,"o":"m 69 347 q 146 612 69 510 q 375 714 222 714 q 454 706 417 714 l 497 831 l 579 831 l 526 678 q 682 347 682 590 q 604 83 682 185 q 375 -19 526 -19 q 288 -10 325 -19 l 246 -131 l 165 -131 l 217 19 q 69 347 69 106 m 576 347 q 492 579 576 511 l 319 82 q 375 75 340 75 q 526 151 475 75 q 576 347 576 226 m 175 347 q 251 119 175 190 l 422 614 q 375 619 394 619 q 225 544 275 619 q 175 347 175 468 z "},"ù":{"ha":790,"x_min":104,"x_max":686,"o":"m 104 694 l 210 694 l 210 272 q 350 75 210 75 q 497 158 431 75 q 567 386 563 240 l 567 694 l 672 694 l 672 139 l 686 0 l 594 -7 l 567 136 q 461 21 525 61 q 332 -19 397 -19 q 104 272 104 -19 l 104 694 m 297 1021 q 369 972 333 1021 l 511 778 l 478 743 l 228 947 q 297 1021 253 1021 z "},"ú":{"ha":790,"x_min":104,"x_max":686,"o":"m 104 694 l 210 694 l 210 272 q 350 75 210 75 q 497 158 431 75 q 567 386 563 240 l 567 694 l 672 694 l 672 139 l 686 0 l 594 -7 l 567 136 q 461 21 525 61 q 332 -19 397 -19 q 104 272 104 -19 l 104 694 m 519 1021 q 589 947 564 1021 l 339 743 l 306 778 l 447 972 q 519 1021 483 1021 z "},"û":{"ha":790,"x_min":104,"x_max":686,"o":"m 104 694 l 210 694 l 210 272 q 350 75 210 75 q 497 158 431 75 q 567 386 563 240 l 567 694 l 672 694 l 672 139 l 686 0 l 594 -7 l 567 136 q 461 21 525 61 q 332 -19 397 -19 q 104 272 104 -19 l 104 694 m 333 971 q 394 1010 360 1010 q 456 971 428 1010 l 590 781 l 557 746 l 394 894 l 232 746 l 199 781 l 333 971 z "},"ü":{"ha":790,"x_min":104,"x_max":686,"o":"m 104 694 l 210 694 l 210 272 q 350 75 210 75 q 497 158 431 75 q 567 386 563 240 l 567 694 l 672 694 l 672 139 l 686 0 l 594 -7 l 567 136 q 461 21 525 61 q 332 -19 397 -19 q 104 272 104 -19 l 104 694 m 221 847 q 213 856 221 847 q 204 894 204 865 q 221 942 204 924 q 269 961 238 961 q 319 942 301 961 q 338 894 338 922 q 319 847 338 867 q 269 828 301 828 q 221 847 238 828 m 468 847 q 460 856 468 847 q 451 894 451 865 q 468 942 451 924 q 517 961 485 961 q 567 942 549 961 q 585 894 585 922 q 567 847 585 867 q 517 828 549 828 q 468 847 485 828 z "},"ý":{"ha":660,"x_min":7,"x_max":649,"o":"m 274 -332 l 183 -301 l 278 -36 l 7 694 l 121 694 l 331 114 l 538 694 l 649 694 l 274 -332 m 475 1021 q 544 947 519 1021 l 294 743 l 261 778 l 403 972 q 475 1021 439 1021 z "},"þ":{"ha":783,"x_min":118,"x_max":714,"o":"m 118 972 l 224 972 l 224 581 q 449 714 300 714 q 640 624 565 714 q 714 363 714 533 q 617 87 714 193 q 372 -19 521 -19 q 224 8 301 -19 l 224 -312 l 118 -312 l 118 972 m 608 361 q 608 424 608 361 q 561 553 608 488 q 427 619 514 619 q 282 539 340 619 q 224 292 224 458 l 224 108 q 381 75 288 75 q 542 155 475 75 q 608 361 608 235 z "},"ÿ":{"ha":660,"x_min":7,"x_max":649,"o":"m 274 -332 l 183 -301 l 278 -36 l 7 694 l 121 694 l 331 114 l 538 694 l 649 694 l 274 -332 m 225 847 q 217 856 225 847 q 208 894 208 865 q 225 942 208 924 q 274 961 242 961 q 324 942 306 961 q 342 894 342 922 q 324 847 342 867 q 274 828 306 828 q 225 847 242 828 m 472 847 q 464 856 472 847 q 456 894 456 865 q 472 942 456 924 q 521 961 489 961 q 571 942 553 961 q 589 894 589 922 q 571 847 589 867 q 521 828 553 828 q 472 847 489 828 z "},"ı":{"ha":356,"x_min":125,"x_max":231,"o":"m 125 0 l 125 694 l 231 694 l 231 0 l 125 0 z "},"Ł":{"ha":621,"x_min":-22,"x_max":621,"o":"m 236 100 l 621 100 l 621 0 l 125 0 l 125 397 l 24 325 l -22 386 l 125 492 l 125 944 l 236 944 l 236 571 l 378 674 l 422 613 l 236 478 l 236 100 z "},"ł":{"ha":365,"x_min":-22,"x_max":393,"o":"m 104 972 l 210 972 l 210 551 l 335 642 l 379 581 l 210 458 l 210 153 q 272 76 210 76 q 351 104 313 76 l 393 29 q 249 -19 317 -19 q 142 18 181 -19 q 104 153 104 56 l 104 382 l 24 325 l -22 386 l 104 476 l 104 972 z "},"Œ":{"ha":1132,"x_min":69,"x_max":1074,"o":"m 467 0 q 169 131 268 0 q 69 472 69 263 q 169 813 69 682 q 467 944 268 944 l 1046 944 l 1046 844 l 643 844 l 643 522 l 972 522 l 972 422 l 643 422 l 643 100 l 1074 100 l 1074 0 l 467 0 m 252 741 q 216 689 252 741 q 181 472 181 638 q 252 203 181 307 q 467 100 324 100 l 532 100 l 532 844 l 467 844 q 252 741 324 844 z "},"œ":{"ha":1081,"x_min":69,"x_max":1032,"o":"m 758 -19 q 572 47 647 -19 q 375 -19 497 -19 q 146 83 222 -19 q 69 347 69 185 q 146 612 69 510 q 367 714 222 714 q 590 628 511 714 q 815 714 683 714 q 972 655 913 714 q 1032 508 1032 596 q 941 346 1032 419 q 676 272 850 272 q 579 276 631 272 q 640 126 589 178 q 763 75 690 75 q 964 150 883 75 l 1014 82 q 758 -19 908 -19 m 175 347 q 175 287 175 347 q 225 151 175 226 q 370 75 275 75 q 514 124 465 75 q 471 328 471 203 q 529 551 471 454 q 377 619 479 619 q 225 544 275 619 q 175 347 175 468 m 811 619 q 652 551 715 619 q 578 371 589 483 q 679 364 622 364 q 863 408 799 364 q 926 511 926 453 q 895 587 926 554 q 811 619 864 619 z "},"Š":{"ha":710,"x_min":42,"x_max":668,"o":"m 106 189 q 215 113 147 143 q 362 82 282 82 q 499 124 442 82 q 557 241 557 165 q 508 360 557 317 q 388 425 458 403 q 248 472 318 447 q 128 555 178 497 q 79 707 79 613 q 163 901 79 836 q 361 967 247 967 q 621 901 518 967 l 565 813 q 360 863 486 863 q 242 825 293 863 q 190 714 190 788 q 286 578 190 621 q 378 543 328 558 q 480 507 429 528 q 572 457 531 486 q 668 253 668 392 q 580 47 668 115 q 357 -22 492 -22 q 42 106 178 -22 l 106 189 m 415 1035 q 353 996 388 996 q 293 1035 319 996 l 158 1225 l 192 1260 l 354 1111 l 517 1260 l 550 1225 l 415 1035 z "},"š":{"ha":599,"x_min":56,"x_max":550,"o":"m 300 76 q 403 106 361 76 q 444 178 444 135 q 421 248 444 222 q 370 285 397 274 q 293 310 343 296 q 217 335 243 325 q 154 368 190 346 q 86 510 86 410 q 154 663 86 611 q 314 714 222 714 q 428 699 371 714 q 515 667 486 683 l 476 582 q 314 618 410 618 q 228 592 265 618 q 192 527 192 567 q 214 465 192 488 q 260 433 236 443 q 332 410 283 424 q 410 384 381 396 q 478 347 440 372 q 550 194 550 299 q 478 35 550 89 q 300 -19 407 -19 q 56 74 156 -19 l 113 150 q 300 76 189 76 m 382 785 q 320 746 354 746 q 260 785 286 746 l 125 975 l 158 1010 l 321 861 l 483 1010 l 517 975 l 382 785 z "},"Ÿ":{"ha":733,"x_min":0,"x_max":733,"o":"m 311 0 l 311 326 l 0 944 l 122 944 l 367 436 l 611 944 l 733 944 l 422 326 l 422 0 l 311 0 m 440 1097 q 432 1106 440 1097 q 424 1144 424 1115 q 440 1192 424 1174 q 489 1211 457 1211 q 539 1192 521 1211 q 557 1144 557 1172 q 539 1097 557 1117 q 489 1078 521 1078 q 440 1097 457 1078 m 193 1097 q 185 1106 193 1097 q 176 1144 176 1115 q 193 1192 176 1174 q 242 1211 210 1211 q 292 1192 274 1211 q 310 1144 310 1172 q 292 1097 310 1117 q 242 1078 274 1078 q 193 1097 210 1078 z "},"Ž":{"ha":696,"x_min":21,"x_max":675,"o":"m 675 0 l 21 0 l 21 94 l 513 844 l 56 844 l 56 944 l 668 944 l 668 888 l 153 100 l 675 100 l 675 0 m 408 1035 q 347 996 381 996 q 286 1035 313 996 l 151 1225 l 185 1260 l 347 1111 l 510 1260 l 543 1225 l 408 1035 z "},"ž":{"ha":583,"x_min":15,"x_max":556,"o":"m 58 604 l 58 694 l 556 694 l 192 90 l 554 90 l 554 0 l 15 0 l 376 604 l 58 604 m 364 785 q 302 746 336 746 q 242 785 268 746 l 107 975 l 140 1010 l 303 861 l 465 1010 l 499 975 l 364 785 z "},"ƒ":{"ha":719,"x_min":25,"x_max":653,"o":"m 76 372 l 76 463 l 264 463 l 264 489 q 345 788 264 693 q 567 883 426 883 q 653 876 608 883 l 632 786 q 556 793 593 793 q 363 489 363 793 l 363 463 l 553 463 l 553 372 l 363 372 l 363 -18 q 190 -244 363 -244 q 25 -189 111 -244 l 67 -114 q 179 -146 139 -146 q 264 -24 264 -146 l 264 372 l 76 372 z "},"ˆ":{"ha":475,"x_min":42,"x_max":433,"o":"m 176 971 q 237 1010 203 1010 q 299 971 271 1010 l 433 781 l 400 746 l 238 894 l 75 746 l 42 781 l 176 971 z "},"ˇ":{"ha":475,"x_min":42,"x_max":433,"o":"m 299 785 q 237 746 271 746 q 176 785 203 746 l 42 975 l 75 1010 l 238 861 l 400 1010 l 433 975 l 299 785 z "},"˘":{"ha":422,"x_min":42,"x_max":381,"o":"m 42 964 l 128 964 q 149 902 128 926 q 210 878 171 878 q 272 903 250 878 q 294 964 294 928 l 381 964 q 336 842 381 890 q 210 793 292 793 q 85 842 129 793 q 42 964 42 890 z "},"˙":{"ha":244,"x_min":42,"x_max":203,"o":"m 63 837 q 52 848 63 837 q 42 894 42 860 q 63 952 42 929 q 122 975 83 975 q 181 951 160 975 q 203 894 203 928 q 181 838 203 861 q 122 814 160 814 q 63 837 83 814 z "},"˚":{"ha":364,"x_min":42,"x_max":322,"o":"m 78 785 q 60 805 78 785 q 42 886 42 825 q 78 987 42 947 q 181 1026 114 1026 q 285 986 249 1026 q 322 886 322 946 q 285 786 322 826 q 181 746 249 746 q 78 785 114 746 m 131 936 q 122 926 131 936 q 113 886 113 917 q 131 836 113 856 q 181 817 149 817 q 233 837 214 817 q 251 886 251 857 q 233 935 251 915 q 181 956 214 956 q 131 936 149 956 z "},"˛":{"ha":658,"x_min":219,"x_max":461,"o":"m 304 -161 q 317 -200 304 -185 q 363 -215 331 -215 q 425 -185 394 -215 l 461 -232 q 406 -272 440 -257 q 327 -287 371 -287 q 251 -255 283 -287 q 219 -174 219 -222 q 251 -78 219 -126 q 350 0 282 -31 l 428 0 q 304 -161 304 -76 z "},"˜":{"ha":579,"x_min":69,"x_max":510,"o":"m 383 819 q 288 840 347 819 q 200 861 228 861 q 135 800 144 861 l 69 811 q 190 961 94 961 q 289 940 225 961 q 379 919 353 919 q 444 981 435 919 l 510 969 q 383 819 483 819 z "},"˝":{"ha":465,"x_min":51,"x_max":465,"o":"m 322 958 q 391 1021 350 1021 q 465 961 432 1021 l 274 743 l 235 771 l 322 958 m 139 958 q 208 1021 167 1021 q 282 961 249 1021 l 90 743 l 51 771 l 139 958 z "},"π":{"ha":843,"x_min":69,"x_max":774,"o":"m 69 694 l 774 694 l 774 592 l 676 592 l 676 151 q 739 75 676 75 l 715 -19 q 606 17 646 -19 q 565 151 565 54 l 565 592 l 278 592 l 278 0 l 167 0 l 167 592 l 69 592 l 69 694 z "},"–":{"ha":867,"x_min":69,"x_max":797,"o":"m 797 306 l 69 306 l 69 406 l 797 406 l 797 306 z "},"—":{"ha":1231,"x_min":69,"x_max":1161,"o":"m 1161 306 l 69 306 l 69 406 l 1161 406 l 1161 306 z "},"‘":{"ha":229,"x_min":28,"x_max":201,"o":"m 28 682 q 76 797 28 707 l 157 944 l 201 929 l 144 617 q 28 682 28 617 z "},"’":{"ha":229,"x_min":28,"x_max":201,"o":"m 201 879 q 153 764 201 854 l 72 617 l 28 632 l 85 944 q 201 879 201 944 z "},"‚":{"ha":229,"x_min":28,"x_max":201,"o":"m 201 68 q 153 -47 201 43 l 72 -194 l 28 -179 l 85 133 q 201 68 201 133 z "},"“":{"ha":410,"x_min":28,"x_max":382,"o":"m 208 682 q 257 797 208 707 l 338 944 l 382 929 l 325 617 q 208 682 208 617 m 28 682 q 76 797 28 707 l 157 944 l 201 929 l 144 617 q 28 682 28 617 z "},"”":{"ha":410,"x_min":28,"x_max":382,"o":"m 382 879 q 333 764 382 854 l 253 617 l 208 632 l 265 944 q 382 879 382 944 m 201 879 q 153 764 201 854 l 72 617 l 28 632 l 85 944 q 201 879 201 944 z "},"„":{"ha":410,"x_min":28,"x_max":382,"o":"m 382 68 q 333 -47 382 43 l 253 -194 l 208 -179 l 265 133 q 382 68 382 133 m 201 68 q 153 -47 201 43 l 72 -194 l 28 -179 l 85 133 q 201 68 201 133 z "},"†":{"ha":601,"x_min":74,"x_max":539,"o":"m 74 740 l 263 740 l 244 944 l 368 944 l 350 740 l 539 740 l 539 622 l 315 672 l 296 672 l 74 622 l 74 740 m 250 -104 l 250 513 l 296 646 l 315 646 l 363 513 l 363 -104 l 315 -315 l 296 -315 l 250 -104 z "},"‡":{"ha":601,"x_min":74,"x_max":539,"o":"m 74 740 l 263 740 l 244 944 l 368 944 l 350 740 l 539 740 l 539 622 l 315 672 l 296 672 l 74 622 l 74 740 m 539 -111 l 350 -111 l 368 -315 l 244 -315 l 263 -111 l 74 -111 l 74 7 l 296 -43 l 317 -43 l 539 7 l 539 -111 m 363 117 l 315 -17 l 296 -17 l 250 117 l 250 513 l 296 646 l 315 646 l 363 513 l 363 117 z "},"•":{"ha":353,"x_min":42,"x_max":311,"o":"m 76 302 q 59 321 76 302 q 42 399 42 340 q 76 495 42 457 q 176 533 111 533 q 276 495 240 533 q 311 399 311 457 q 276 302 311 340 q 176 264 240 264 q 76 302 111 264 z "},"…":{"ha":875,"x_min":69,"x_max":806,"o":"m 89 2 q 79 13 89 2 q 69 57 69 24 q 89 112 69 90 q 145 133 108 133 q 202 112 182 133 q 222 57 222 90 q 202 2 222 24 q 145 -19 182 -19 q 89 2 108 -19 m 381 2 q 371 13 381 2 q 361 57 361 24 q 381 112 361 90 q 437 133 400 133 q 494 112 474 133 q 514 57 514 90 q 494 2 514 24 q 437 -19 474 -19 q 381 2 400 -19 m 672 2 q 663 13 672 2 q 653 57 653 24 q 672 112 653 90 q 728 133 692 133 q 785 112 765 133 q 806 57 806 90 q 785 2 806 24 q 728 -19 765 -19 q 672 2 692 -19 z "},"‰":{"ha":1511,"x_min":21,"x_max":1490,"o":"m 299 -118 l 668 979 l 771 979 l 401 -118 l 299 -118 m 357 780 q 381 742 357 780 q 404 583 404 704 q 357 387 404 463 q 213 311 310 311 q 69 388 117 311 q 21 583 21 464 q 69 779 21 703 q 213 856 117 856 q 357 780 310 856 m 283 452 q 295 477 283 452 q 307 583 307 503 q 283 715 307 664 q 213 765 260 765 q 142 715 165 765 q 118 583 118 664 q 142 452 118 503 q 213 401 165 401 q 283 452 260 401 m 1154 81 q 1131 119 1154 81 q 1107 278 1107 157 q 1154 474 1107 399 q 1298 550 1201 550 q 1442 474 1394 550 q 1490 278 1490 397 q 1442 82 1490 158 q 1298 6 1394 6 q 1154 81 1201 6 m 713 81 q 689 119 713 81 q 665 278 665 157 q 713 474 665 399 q 856 550 760 550 q 1001 474 953 550 q 1049 278 1049 397 q 1001 82 1049 158 q 856 6 953 6 q 713 81 760 6 m 1228 409 q 1216 384 1228 409 q 1204 278 1204 358 q 1228 147 1204 197 q 1299 96 1251 96 q 1369 147 1346 96 q 1393 278 1393 197 q 1369 409 1393 358 q 1299 460 1346 460 q 1228 409 1251 460 m 786 409 q 774 384 786 409 q 763 278 763 358 q 786 147 763 197 q 857 96 810 96 q 928 147 904 96 q 951 278 951 197 q 928 409 951 358 q 857 460 904 460 q 786 409 810 460 z "},"‹":{"ha":303,"x_min":42,"x_max":261,"o":"m 72 269 q 42 336 42 304 q 72 403 42 368 l 218 575 l 261 554 l 171 336 l 261 118 l 218 97 l 72 269 z "},"›":{"ha":303,"x_min":42,"x_max":261,"o":"m 231 403 q 261 336 261 368 q 231 269 261 304 l 85 97 l 42 118 l 132 336 l 42 554 l 85 575 l 231 403 z "},"⁄":{"ha":361,"x_min":-56,"x_max":417,"o":"m -56 -118 l 314 979 l 417 979 l 47 -118 l -56 -118 z "},"€":{"ha":719,"x_min":33,"x_max":704,"o":"m 33 443 l 33 526 l 135 526 q 246 786 160 689 q 472 883 332 883 q 704 818 613 883 l 657 740 q 578 778 631 763 q 479 793 526 793 q 322 720 381 793 q 244 526 263 647 l 510 526 l 510 443 l 236 443 l 236 381 l 510 381 l 510 297 l 244 297 q 454 76 281 76 q 559 88 510 76 q 629 110 608 99 l 650 121 l 693 38 q 455 -22 599 -22 q 231 64 311 -22 q 132 297 151 150 l 33 297 l 33 381 l 126 381 l 126 397 q 128 443 126 428 l 33 443 z "},"™":{"ha":919,"x_min":11,"x_max":843,"o":"m 465 818 l 457 500 l 378 500 l 394 979 l 478 979 l 610 674 l 743 979 l 826 979 l 843 500 l 765 500 l 753 817 l 646 571 l 575 571 l 465 818 m 344 910 l 217 910 l 217 500 l 139 500 l 139 910 l 11 910 l 11 979 l 344 979 l 344 910 z "},"Ω":{"ha":1125,"x_min":125,"x_max":989,"o":"m 989 553 q 814 228 989 349 l 814 100 l 986 100 l 986 0 l 711 0 l 711 258 q 833 376 789 296 q 878 553 878 457 q 798 778 878 690 q 561 865 718 865 q 326 778 404 865 q 247 553 247 692 q 292 376 247 457 q 414 258 336 296 l 414 0 l 125 0 l 125 100 l 311 100 l 311 228 q 136 553 136 349 q 242 851 136 736 q 562 967 349 967 q 882 851 775 967 q 989 553 989 736 z "},"∂":{"ha":751,"x_min":79,"x_max":679,"o":"m 399 658 q 543 624 479 658 q 154 919 451 871 l 178 1000 q 385 931 294 978 q 529 826 475 883 q 618 694 583 768 q 679 393 679 565 q 597 101 679 221 q 380 -19 515 -19 q 162 67 244 -19 q 79 308 79 154 q 176 560 79 463 q 399 658 274 658 m 579 404 q 571 513 579 463 q 414 567 504 567 q 254 494 324 567 q 185 306 185 421 q 238 132 185 192 q 376 72 290 72 q 521 157 463 72 q 579 404 579 242 z "},"∆":{"ha":772,"x_min":0,"x_max":772,"o":"m 454 972 l 772 0 l 0 0 l 318 972 l 454 972 m 386 846 l 147 100 l 625 100 l 386 846 z "},"∏":{"ha":936,"x_min":69,"x_max":867,"o":"m 867 869 l 769 869 l 769 -208 l 658 -208 l 658 869 l 278 869 l 278 -208 l 167 -208 l 167 869 l 69 869 l 69 972 l 867 972 l 867 869 z "},"∑":{"ha":769,"x_min":69,"x_max":728,"o":"m 728 869 l 194 869 l 472 382 l 194 -106 l 728 -106 l 728 -208 l 69 -208 l 69 -106 l 347 382 l 69 869 l 69 972 l 728 972 l 728 869 z "},"−":{"ha":719,"x_min":65,"x_max":654,"o":"m 65 382 l 65 482 l 654 482 l 654 382 l 65 382 z "},"√":{"ha":704,"x_min":69,"x_max":843,"o":"m 843 915 l 676 915 l 385 -208 l 249 -208 l 69 319 l 157 319 l 299 -117 l 588 1014 l 843 1014 l 843 915 z "},"∞":{"ha":1019,"x_min":69,"x_max":950,"o":"m 739 201 q 620 242 672 201 q 514 358 568 283 q 410 243 464 285 q 269 201 357 201 q 125 259 181 201 q 69 431 69 317 q 125 602 69 544 q 268 660 181 660 q 409 621 356 660 q 511 513 463 582 q 613 621 561 582 q 739 660 665 660 q 894 602 839 660 q 950 431 950 544 q 894 260 950 318 q 739 201 838 201 m 278 292 q 373 328 332 292 q 460 435 414 365 q 370 535 414 500 q 274 569 326 569 q 168 431 168 569 q 278 292 168 292 m 742 569 q 649 535 689 569 q 565 433 610 500 q 651 328 611 364 q 746 292 692 292 q 851 431 851 292 q 742 569 851 569 z "},"∫":{"ha":583,"x_min":0,"x_max":583,"o":"m 236 767 q 287 939 236 885 q 417 993 338 993 q 583 938 497 993 l 542 863 q 432 894 469 894 q 347 772 347 894 l 347 -3 q 297 -175 347 -121 q 166 -229 246 -229 q 0 -174 86 -229 l 42 -99 q 151 -131 114 -131 q 236 -8 229 -131 l 236 767 z "},"≈":{"ha":719,"x_min":65,"x_max":654,"o":"m 654 501 q 531 451 596 451 q 355 500 465 451 q 184 549 244 549 q 65 501 124 549 l 65 607 q 185 654 125 654 q 356 606 246 654 q 531 557 467 557 q 654 607 596 557 l 654 501 m 65 363 q 185 410 124 410 q 356 361 246 410 q 531 313 467 313 q 654 363 596 313 l 654 257 q 531 207 596 207 q 355 256 465 207 q 184 304 244 304 q 65 257 124 304 l 65 363 z "},"≠":{"ha":719,"x_min":65,"x_max":654,"o":"m 65 257 l 65 357 l 283 357 l 333 507 l 65 507 l 65 607 l 367 607 l 493 979 l 596 979 l 469 607 l 654 607 l 654 507 l 436 507 l 386 357 l 654 357 l 654 257 l 353 257 l 226 -118 l 124 -118 l 250 257 l 65 257 z "},"≤":{"ha":719,"x_min":81,"x_max":639,"o":"m 97 397 l 97 465 l 564 742 l 615 657 l 235 432 l 615 207 l 564 122 l 97 397 m 81 -67 l 81 33 l 639 33 l 639 -67 l 81 -67 z "},"≥":{"ha":719,"x_min":81,"x_max":639,"o":"m 622 465 l 622 397 l 156 122 l 104 207 l 485 432 l 104 657 l 156 742 l 622 465 m 81 -67 l 81 33 l 639 33 l 639 -67 l 81 -67 z "},"◊":{"ha":772,"x_min":56,"x_max":717,"o":"m 454 972 l 717 382 l 454 -208 l 318 -208 l 56 382 l 318 972 l 454 972 m 171 382 l 386 -115 l 601 382 l 386 879 l 171 382 z "},"":{"ha":1282,"x_min":139,"x_max":1143,"o":"m 818 -124 l 786 -122 q 742 -139 767 -122 q 706 -156 718 -156 l 642 -142 q 609 -150 631 -142 q 576 -158 588 -158 q 542 -141 564 -158 q 501 -124 519 -124 l 468 -126 q 422 -103 447 -126 l 397 -76 q 363 -67 381 -68 q 332 -58 344 -65 q 310 -26 319 -50 q 292 5 300 -1 q 265 19 285 11 q 238 39 246 26 q 228 72 231 51 q 219 101 225 92 q 200 119 214 110 q 169 172 169 144 l 174 207 q 156 244 174 219 q 139 281 139 268 q 147 313 139 293 q 156 345 156 333 q 147 375 156 357 q 139 406 139 393 q 156 447 139 418 q 174 488 174 475 l 172 522 q 195 563 172 543 q 222 590 218 583 q 228 619 225 597 q 236 650 231 642 q 263 667 242 658 q 292 682 285 675 q 308 710 299 689 q 327 740 318 732 q 363 753 336 747 q 397 763 389 758 q 425 790 404 767 q 465 815 446 814 l 501 813 q 541 828 519 813 q 578 844 563 844 l 639 828 l 701 844 q 742 827 719 844 q 781 810 764 810 l 819 814 q 860 791 842 814 q 887 763 878 768 q 917 754 896 758 q 948 743 938 750 q 965 717 958 736 q 980 690 972 697 q 1015 669 988 683 q 1049 643 1043 654 q 1056 610 1056 632 q 1060 581 1057 588 q 1088 555 1064 575 q 1111 513 1111 535 l 1110 478 q 1126 434 1110 460 q 1143 396 1143 408 q 1135 365 1143 383 q 1128 338 1128 347 q 1135 308 1128 328 q 1142 276 1143 288 q 1125 248 1142 265 q 1108 211 1108 231 l 1111 167 q 1089 126 1111 144 q 1063 101 1067 108 q 1053 68 1060 94 q 1040 33 1047 42 q 1015 16 1032 24 q 990 1 997 8 q 971 -28 983 -6 q 949 -58 958 -51 q 915 -72 939 -65 q 883 -82 890 -78 q 858 -105 876 -86 q 818 -124 839 -124 m 642 -8 l 688 -18 q 711 -8 696 -18 q 749 6 732 6 l 769 4 q 799 18 786 4 q 816 35 811 32 q 839 42 821 38 q 865 53 857 47 q 881 74 872 58 q 895 95 890 90 q 913 106 900 100 q 931 117 925 111 q 940 143 936 124 q 948 168 944 163 q 967 186 951 174 q 982 218 982 199 l 981 246 q 992 274 981 261 q 1006 296 1004 288 l 994 340 l 1006 379 q 993 410 1006 390 q 981 442 981 429 l 982 465 q 965 496 982 482 q 946 515 949 510 q 942 537 943 521 q 938 560 942 553 q 913 578 933 568 q 888 594 893 589 q 876 614 882 600 q 864 633 871 628 q 842 642 857 639 q 819 648 826 644 q 800 668 813 651 q 771 685 788 685 l 743 682 q 715 694 731 682 q 686 707 700 707 l 640 694 l 596 707 q 568 695 585 707 q 538 683 551 683 l 514 685 q 484 667 499 685 q 463 647 469 650 q 439 640 457 643 q 414 631 421 636 q 400 610 407 625 q 388 589 393 594 q 367 578 382 583 q 347 565 353 572 q 342 544 344 560 q 336 522 339 528 q 317 502 333 517 q 300 472 300 488 l 301 450 q 290 418 301 439 q 278 386 278 397 l 289 344 l 278 299 q 290 270 278 288 q 301 242 301 253 l 299 219 q 316 188 299 204 q 336 167 333 172 q 341 147 339 161 q 349 123 343 132 q 368 108 354 114 q 388 98 382 103 q 401 75 393 93 q 417 51 408 57 q 438 46 425 46 q 460 42 451 46 q 484 20 468 38 q 515 3 500 3 l 536 4 q 567 -8 550 4 q 592 -21 583 -19 l 642 -8 m 475 510 q 510 545 475 510 q 642 579 544 579 q 808 510 739 579 q 878 343 878 442 q 808 176 878 244 q 642 107 739 107 q 475 176 544 107 q 406 343 406 244 q 475 510 406 442 m 701 406 l 774 406 l 774 500 l 508 500 l 508 406 l 583 406 l 583 163 l 701 163 l 701 406 z "},"ﬁ":{"ha":735,"x_min":56,"x_max":617,"o":"m 56 604 l 56 694 l 146 694 l 146 765 q 195 938 146 883 q 324 992 244 992 q 490 936 404 992 l 449 861 q 336 893 376 893 q 251 771 251 893 l 251 694 l 617 694 l 617 0 l 511 0 l 511 604 l 251 604 l 251 -222 l 146 -222 l 146 604 l 56 604 z "},"ﬂ":{"ha":800,"x_min":56,"x_max":828,"o":"m 56 604 l 56 694 l 146 694 l 146 765 q 195 938 146 883 q 324 992 244 992 q 490 936 404 992 l 449 861 q 336 893 376 893 q 251 771 251 893 l 251 694 l 411 694 l 411 604 l 251 604 l 251 -222 l 146 -222 l 146 604 l 56 604 m 539 972 l 644 972 l 644 153 q 707 76 644 76 q 786 104 747 76 l 828 29 q 683 -19 751 -19 q 577 18 615 -19 q 539 153 539 56 l 539 972 z "}}}
